<?xml version="1.0" encoding="UTF-8"?>
<!DOCTYPE svg PUBLIC "-//W3C//DTD SVG 1.1//EN" "http://www.w3.org/Graphics/SVG/1.1/DTD/svg11.dtd">
<!-- Creator: CorelDRAW -->
<svg xmlns="http://www.w3.org/2000/svg" xml:space="preserve" width="132.292mm" height="132.292mm" version="1.1" style="shape-rendering:geometricPrecision; text-rendering:geometricPrecision; image-rendering:optimizeQuality; fill-rule:evenodd; clip-rule:evenodd"
viewBox="0 0 13229.16 13229.16"
 xmlns:xlink="http://www.w3.org/1999/xlink"
 xmlns:xodm="http://www.corel.com/coreldraw/odm/2003">
 <defs>
  <style type="text/css">
   <![CDATA[
    .fil0 {fill:#28437A}
    .fil1 {fill:#CCCCCC}
   ]]>
  </style>
 </defs>
 <g id="Camada_x0020_1">
  <metadata id="CorelCorpID_0Corel-Layer"/>
  <g id="_2410274278432">
   <path class="fil0" d="M5264.23 8370.15c19.18,47.16 -45.14,46.55 -108.48,132.31 -48.64,65.85 -36.69,130.21 -77.93,173.5 -40.2,42.2 -86.82,82.61 -127.67,123.55 -56.64,56.76 -65.74,108.58 18.29,143.51 -8.69,56.72 -80.86,54.01 -166.45,86.09 -169.45,63.5 -1371.25,333.47 -1403.19,320.76 -44.75,-29.74 -26.06,-29.29 -84.77,-38.99 -54.14,-8.95 -49.49,-14.27 -82.15,-52.1 -43.98,-50.93 -136.79,-43.39 -179.9,5.19l0.96 81.78c-73.96,0.36 -74.58,-26.37 -125.48,-59.48 -30.87,-20.1 -120.97,-6.35 -144.82,15.46 -9.12,33.29 20.08,103.1 -10.94,147.64 -20.7,29.73 -399.33,108.7 -427.7,109.15 -4.83,-166.72 -0.09,-320.94 16.85,-485.78 24.13,-234.79 -8.36,-495 -18.83,-721.17 -3.88,-83.72 -7.58,-159.34 -6.66,-244.37 0.96,-88.35 43.59,-344.94 96.5,-405.07 147,-1.66 240.19,27.21 345.34,23.83l18.93 -21.97c44.43,-1.89 95.1,10.88 146.32,11.73 47.73,0.79 113.06,-13.38 152.38,-5.65 76.5,118.43 -34.36,296.46 211.59,264.51 116.15,-15.1 241.15,2.8 356.55,5.63 76.21,1.87 41.59,-6.04 98.18,-27.83 43.49,17.21 33.47,25.78 93.4,27.51 50.77,1.46 68.07,-14.1 107.57,-13.31 3.6,93.28 -73.65,-31.22 -88.68,143.19 -25.17,292.12 89.88,213.11 477.01,230.83 145.84,6.68 304.9,6.24 448.98,17.9 76.4,6.19 154.69,5.29 231.82,5.83 46.39,0.33 204.47,-10.43 232.98,5.82zm3565.29 -909.03c-4.9,-39.67 -8.11,-69.36 18.04,-100.86l-14.12 -48.56c49.47,-26.83 41.58,-83.81 118.75,-51.06 6.32,52.14 -63.61,190.81 -122.67,200.48zm-1783.63 -242.4c49.24,-5.8 115.79,-1.05 166.87,0.01 66.53,1.38 70.24,14.65 106.4,62.05 50.5,66.2 90.13,130.27 136.92,200.03 44.15,65.82 92.65,128.38 140.3,190.26 82.82,107.56 88.25,109.13 74.05,257.66l-18.58 22.58c-65.71,2.8 -118.83,-3.78 -189.54,3.21l-593.45 2.53c-376.07,-1.91 -769.77,-18.67 -1150.16,-25.46 -63.06,-1.13 -128.43,-3.72 -191.69,-6.56 -75.39,-3.39 -91.4,-22.59 -153.25,29.33 -120.85,101.44 -118.28,114.4 -296.12,100.8 -71.89,-5.5 -339.19,8.65 -380.71,-19.22 -15.39,-25.39 -9.21,-47.56 -36.12,-59.42 -20.59,-9.07 -57.08,-6.75 -85.87,-14.28l2.78 -30.01c-9.58,-5.08 -6.49,-2.13 -11.85,-4.58l-21.41 -12.14c5.95,-57.53 15.14,1.5 22.85,-100.79 62.22,8.88 21.42,79.24 150.94,37.9 99.02,-31.62 50.77,-6.68 164.97,-60.04 145.47,-67.97 295.03,-196.07 425.1,-248.38l173.4 -52.32c94.65,-22.94 326.12,-11.08 435.28,-11.4 299.22,-0.89 716.34,-29.82 978.11,137.15 93.38,59.56 107.42,110.44 264.31,185.09 210.74,100.28 148.7,42.38 215.96,-32.63 -2.49,-23.59 -17.32,-50.49 -22.69,-82.16 -16.47,-97.29 -22.32,-162.99 -96.03,-232.91 -87.47,-82.96 -49.41,-81.85 -89.9,-128.13 -52.46,-59.97 -93.7,-44.56 -120.87,-108.17zm1911.53 -56.77c-19.57,35.36 -34.09,37.38 -74.12,35.29 -24.59,-48.06 4.41,-39.02 -56.37,-55.81 -34.74,-9.6 -51.25,-55.44 -14.76,-67.18 20.47,-6.58 85.54,-0.28 104.58,8.4 24.43,11.14 39.08,53.43 40.67,79.3zm-169.24 -286.58c10.48,19.49 8.66,42.69 3.33,66.98 -6.63,30.11 -9.94,35.13 -35.68,42.85 -26.84,-34.3 -50.47,-153.87 32.35,-109.83zm-5.27 -1196.49c68.63,89.51 -50.58,119.21 -53.37,27.92 -1.06,-34.69 24.3,-29.27 53.37,-27.92zm141.44 -380.92l36.98 -4.86c44.99,75.34 33.63,165.86 41.16,251.29 4.14,47.05 2.4,95.98 2.53,143.51 0.1,39.2 12.71,115.21 -14.31,140.84 -16.79,-23.95 -6.75,-34.6 -22.2,-58.18 -43.29,-9.74 -102.2,12.65 -81.18,-74.59 11.39,-47.3 48.47,-0.55 50.61,-107.21l-2.22 -236.93c-8.78,-26.93 -31.97,-12.65 -11.37,-53.87zm-1140.96 -2707.57c35.45,-14.74 56.2,14.34 87.97,31.78 19.46,10.68 61.41,29.79 77.06,42.45 33.13,26.78 15.12,62.49 8.45,97.17 -12.05,62.62 -3.98,36.55 -44.88,75.9 -64.44,62.01 -132.53,307.35 -163.98,321.36 -33.09,2.28 -59.19,-11.32 -80.23,-35.45 -19.55,-39.11 85.81,-238.84 107.2,-381.06 7.12,-47.33 -9.12,-110.42 8.41,-152.15zm-148.98 590.75l315.79 4.24 0 21.45c-90.81,21.16 -167.72,12.69 -234.2,97.11 -5.56,38.75 12.9,114.99 -9.41,141.72 -21.18,13.52 -65.78,5.1 -94.39,9.95 -26.97,55.96 -173.86,446.1 -172.64,485.28l21.04 44.28 -35.66 36.98c7.23,42.18 23.32,14.09 19.7,59.75l-58.63 0.77c-38.05,82.22 -298.59,855.32 -360.2,1028.52 -59.02,165.91 -17.14,142.93 -156.68,138.56l-401.22 -1318.63c-22.42,-5.2 -41.58,-15.27 -61.75,-27.65 -24.15,-14.83 -33.89,-18.2 -34.9,-48.73l75.31 2.15 -47.57 -146.73 -397.66 1541.03 -113.34 0.47c-13.51,-56.02 -556.92,-1486.11 -622.44,-1662.02 -24.73,-66.4 -58.72,-174.83 -90.15,-232.12 -96.19,-2.62 -193.91,-6.91 -289.58,-7.22 -44.8,-0.14 -99.39,6.51 -138.84,-15.06 -41.32,-22.58 -54.76,-37.02 -104.29,-48.23l-23.96 -2.29 0.04 696.98 -44.59 1.75c-0.8,-130.03 -25.49,-260.49 -77.55,-378.48 -32.51,-73.66 -121.77,-239.61 -185.66,-271.75 -84.49,14.31 -174.71,87.79 -235.06,98.05l-16.38 -30.77c-171.23,5.11 -121.93,-5.29 -151.31,33.68 -9.71,12.88 -16.98,11.47 -29.73,23.54 -55.38,52.4 -10.96,197.18 -33.77,282.56 -16.25,60.87 -39.88,104.68 -18.7,172.31 14.55,46.5 43.55,96.48 88.56,117.85 77.46,-78.67 123,-388.34 132.96,-503.33l41.59 -0.74 -0.01 1257.05 -35.97 -0.84c-28.21,-49.1 -41.53,-588.62 -262.68,-573.83 -53.19,55.8 -48.69,69.51 -134.14,68.69 -61.18,-0.58 -121.99,-1.67 -182.23,6.3 -7.97,244.34 -3.67,510.81 -0.6,756.38 0.77,61.91 -7.32,106.28 58.98,130.47 109.86,40.09 417.35,31.76 526.87,15.22 457.55,-69.1 580.73,-484.7 619.83,-893.32l44.91 3.76 0 939.44c-44.34,10.61 -204.82,3.68 -261.32,3.68 -181.55,0 -1763.09,7.43 -1815.06,-3.24l-0.03 -28.52c82.34,-16.73 386.36,11.33 421.08,-74.52 16,-39.57 10.3,-404.18 9.05,-472.79l-21.88 -11.86c-6.04,-38.16 6.08,-95.37 8.06,-136.96 13.34,-279.85 37.04,-228.36 -66.48,-372.9 -69.04,-96.4 -67.52,-103.09 -193.88,-109.54 -558.66,-28.56 -464.91,131.51 -488.45,422.58 -7.91,97.72 -5.71,198.93 -6.71,297.64 -0.74,72.99 5.32,234.08 -5.44,296.37 0.78,55.22 10.93,165 -4.5,207.27l-19.71 1366.9c-2.09,103.53 -0.17,195.46 70.58,276.09 40.67,46.35 140.91,114.82 202.18,140.35 24.59,10.24 129.93,22.38 159.53,22.01 91.92,-1.14 46.85,-17.38 134.05,21.42 133.63,59.47 272.88,31.55 292.07,53.02 13.39,31.12 -26.4,214.78 -51.56,239.11 -31.32,6.13 -160.92,-8.29 -209.33,-6.67 -126.08,4.22 -23.79,30.49 -185.1,32.64 -46.63,0.62 -143.63,8.88 -186.62,21.5 -64.24,18.85 -96.55,33.33 -167.87,44.28 -63.66,9.78 -123.39,-2.72 -178.55,38.66 -55.87,41.91 18.31,29.03 -111.59,99.29 -46.9,25.37 -86.36,50.37 -125.04,86.29 -18.46,17.14 -32.81,37.76 -50.89,55.21 -29.37,28.35 -21.94,28.92 -42.24,62.37 -122.82,202.38 -158.92,441.98 -176.28,678.64 -11.11,151.49 -39.1,672.71 -36.4,806.44l-6.34 330.43 86.15 80.27 3.54 -86.84c1.11,-34.53 1.47,-12.81 8.63,-23.49 -13.9,-38.5 11.7,-249.09 13.74,-306.84 9.99,-281.85 1.92,-716.28 39.13,-955.84 27.32,-175.88 74.43,-335.84 178,-484.21 62.74,-89.87 202.2,-206.48 308.96,-187.56 21.21,3.75 106.45,37.63 117.15,50.67 13.61,35.9 -13.44,56.81 -28.43,89.88 -47.03,103.78 -49.19,490.25 -37.04,605.39 8.05,76.35 27.99,143.51 36.2,220.61 14.98,140.62 -26.23,334.49 -31.56,482.36 -2.15,59.46 -6.99,462.03 -33.95,484.66 -15.96,8.67 -490.36,120.5 -511.87,120.33 -15.62,13.08 -13.59,9.15 -37.71,11.09 16.32,29.41 135.14,125.08 168.13,153.97 40.25,35.23 139.7,136.32 187.99,141.06 26.17,-8.33 118.19,-32.67 136.99,-25.34 12.32,-21.32 52.74,-22.77 76.98,-15.67 12.7,49.51 6.63,164.02 6.77,220.47l44.55 38.51 8.92 -260.3 16.64 -10.5c-5.29,-14.23 250.84,-65.07 268.33,-69.14 46.79,-10.88 94.2,-22.41 140.97,-32.02 47.16,-9.7 101.19,-39.09 148.12,-19.43 23.8,9.96 29.91,18.89 58.21,26.63 27.97,7.64 39.15,6.63 69.05,18.49 48.88,19.4 105.77,22.21 157.95,12.33 98.14,-18.58 115.9,107.22 248.07,94.97 34.39,-30.54 31.19,-150.29 26.09,-196 -22.34,-26.74 -69.77,-62.49 -33.55,-112.61 16.91,-23.38 340.94,-94.11 377.64,-101.42 170.56,-33.96 346.17,-85.51 515.51,-117.6 163.23,-30.94 353.54,-77.09 512.99,-121.88 102.24,-28.73 434.15,-187.18 458.77,-177.46 28.73,26.43 16.24,46.41 52.88,73.44 55.67,2.66 66.6,-28.73 118.98,-28.09 6.83,1.59 126.03,112.89 213.64,-13.49 33.48,-48.3 1.43,-91.56 42.24,-123.38 44.13,-34.4 65.2,-3.84 86.33,-57.35l7.75 -15.47c36.55,8.27 98.98,57.06 92.07,99.69 -4.77,29.36 -256.7,324.48 -68.17,785.62 34.94,85.47 141.49,178.43 129.81,268.7 -60.81,32.82 -159.87,28.55 -202.21,77.57l-1.41 72.82c-32.92,15.66 -73.3,8.6 -88.67,38.92 -9.9,19.51 -24.45,76.05 -22.76,96.88l-2.59 67.98c44.08,13.31 107.15,-5.97 143.85,20.85 -2.01,61.03 -94.82,32.17 -145.35,38.49l11.55 99.08c5.25,32.23 35.43,56.96 57.31,77.99 42.44,40.79 46.76,29.67 48.98,95.12l30.26 24.68c-1.7,81.89 -22.18,45.69 21.27,131.46 18.06,35.66 56.16,82.43 40.07,119.32 -47.19,18.53 -83.96,-6.64 -164.66,46.82 -67.43,44.67 -97.74,29.23 -176.76,22.8 -75.01,-6.1 -124.95,-19.06 -152.64,55.86 -17.8,48.19 -18.69,114.06 -44.35,160.95l0.96 21.61c222.73,40.58 461.36,34.24 685.51,34.6 591.06,0.94 753.85,24.71 1355.07,-82.77 88.82,-15.88 542.54,-98.76 584.61,-141.66 -50.05,-14.59 -70.31,-2.59 -117.74,-8.06 -17.39,-64.14 19.77,-63.71 -23.58,-137.51 -68.14,3.46 -127.23,-2.4 -202.07,5.1 -47.73,4.79 -171.46,20.07 -205.35,-11.56 -10.72,-27.36 14.59,-85.85 34.24,-111.81 49.19,-65.01 38.36,-19.86 33.65,-109.57 -6.84,-130.08 22.78,-540.15 -24.23,-602.72 -47.58,-63.33 -133.17,-93.58 -172.86,-143.73 -16.52,-42.58 49.38,-80.82 101.05,-210.09 25.59,-64.03 64.21,-165.35 76.36,-233.72 40.04,-225.33 -24.16,-334.3 -84.05,-510.33 -35.84,-105.34 10.37,-137.32 93.82,-189.46 85.3,-53.31 324.58,-186.19 368.34,-251.73 42.94,-64.3 3.54,-208.73 29.6,-281.64 34.99,-22.83 110.08,-6.16 156,-5.38l528.81 7.7c118.7,1.71 220.81,30.48 229.07,-117.31 3.5,-62.72 -18.56,-304.14 -29.06,-326.71 -30.02,-33.83 -133.44,-26.46 -163.94,-40.03 -11.79,-22.74 -7.91,-53.99 -0.82,-81.22 37.49,-38.97 69.83,-22.01 115.34,-95.27 40.5,-65.21 29.68,-111.65 52.11,-166.38 18.98,-46.3 127.72,-49.46 217.15,-212.05 30.21,-54.92 35.32,-100.01 58.38,-153.13 20.27,-46.69 80.93,-97.31 73.73,-140.51 -11.9,-71.32 -203.58,-77.75 -200.53,-211.99 17.66,-33.3 39.6,-23.87 46.25,-50.65 7.87,-31.68 -8.42,-65.16 10.2,-97.55 35.44,-36.6 98.94,38.87 119.8,69.29 16.23,23.66 5.38,26.4 18.85,46.37 25.58,7.43 72.01,8.37 98.05,1.39l12.96 -44.11c52.86,5.46 29.23,36.57 115.85,25.12l24.29 -29.22c27.99,12.89 72.33,104.13 110.09,156.03 105.27,144.67 29.39,132.58 63.44,195.12 40.14,73.71 227.15,175.91 310.37,210.07 214.13,87.9 440.48,88.14 674.8,103.36 82.69,5.37 169.09,14.28 251.8,12.44 61.6,-1.38 75.95,-47.12 221.62,-14.99 91.97,20.28 75.58,83.37 163.4,99.93 117.1,22.08 220.45,-55.03 252.74,-66.42 38.75,-13.67 59.36,15.48 140.19,-56.82 22.72,-20.33 40.74,-39.63 60.3,-65.01 40.38,-52.39 22.84,-28.78 79.11,-54.72 110.74,-51.07 73.77,-95.08 172.92,-92.95 170.74,3.67 340.35,10.35 511.87,7.78 40.35,-62.93 107.83,-286.28 134.38,-370.08 65.79,-207.64 67.9,-177.24 77.12,-367.89 2.68,-55.43 -0.58,-39.03 11.59,-57.4 -10.99,-29.58 8,-631.8 6.67,-762.93 -0.41,-39.73 1.48,-87.12 -1.76,-125.92 -3.64,-43.63 -23.49,-59.22 -65.82,-61.23 -166.13,-7.87 -336.03,-10.88 -502.53,-16.8 -39.68,-1.41 -78.29,-4.12 -118.71,-4.49 -83.44,-0.78 -129.84,64.78 -170.11,91.74 -34.75,23.26 -78.14,7.98 -120.67,13.88l-18.23 24.56c-77.34,4.18 -127.96,-34.8 -199.77,-39.87 -74.05,-5.22 -412.37,-17.92 -462.78,19.22 -13.04,9.61 -38.3,48.44 -53.3,65 -48.38,53.4 -34.29,23.59 -87.18,40.86 -29.06,9.49 -37.05,44.19 -65.8,51.61 -18.32,4.72 -92.91,1.56 -117.68,1.83 -250.34,2.85 -312.83,-84.78 -378.74,-103.91 -89.52,-25.98 -96.57,0.42 -135.29,78.12 -60.94,7.65 -128,-9.4 -187.86,-17.87 -116.95,-16.54 -265.61,-55.26 -349.39,-3.21 -27.27,16.95 -32.17,31.61 -51.59,53.83 -35.03,40.06 -33.33,18.86 -81.37,23.57 -58.59,57.81 -100.84,8.68 -161.34,31.68 -52.44,19.94 -165,15.41 -178.46,0.06 -27.19,-31.02 23.57,-342.25 -33.34,-510.1 -34.63,-102.16 8.13,-64.45 129.61,-67.97l244.73 31.09c51.68,0.03 75.04,24.4 119.04,23.09 39.35,-1.18 72.24,-25.11 106.71,-35.5 123.6,-37.28 281.74,46.27 343.04,57.26 116.17,20.82 239.12,13.24 345.13,-42.56 29.77,-15.67 57.98,-35.19 88.1,-50.64 50.27,-25.8 64.43,-15.64 113.4,-26.65 34.99,-7.87 74.05,-27.2 106.93,-31.87 66.12,-9.4 190.53,21.72 182.38,-90.16l-25.8 -10.27c-13.31,-88.22 24.26,-72.17 94.95,-72.57 58.5,-0.33 82.71,3.71 134.61,26.49 178.87,78.52 99.63,-57.06 206.49,-58.75 83.36,113.51 140.53,224.53 258.65,294.09 67.65,39.85 55.51,34.22 103.59,88.8 39.09,7.14 81.4,-2.65 121.67,3.16 40.65,5.86 72.87,7.67 113.46,12.18 39.96,4.43 80.32,1.58 118.97,6.22 65.47,7.87 42.69,31.63 79.93,43.45l39.24 -28.96c26.89,-0.87 31.78,9.6 54.13,-11.81 18.8,-18 21.12,-24.35 29.81,-48.91 17.67,-49.94 95.34,-347.73 122.01,-367.27 30.84,-22.59 286.92,5.15 374.49,-42.8 22.61,-12.38 61.48,-48.73 80.75,-51.22 9.05,-12.98 0.1,-3.82 14.54,-18.68 8.12,-8.36 21.92,-15.37 28.48,-31.3 16.59,-40.33 6.82,-485.81 -9.97,-551.47 -19.15,-6.1 -68.79,-77.94 -167.73,-94.04 -2.22,-0.36 -283.56,-6.33 -385.18,-18.77 -41.78,-5.11 -85.96,-2.4 -128.5,-5.07l-383 -18.32c-61.37,-1.86 -58.29,7.76 -109.9,-24.41 -57.6,-35.91 -123.2,-57.12 -186.35,-77.69 -69.92,-22.79 -142.71,-39.88 -213.93,-56.78 -75.75,-17.98 -140.24,-16.28 -193.89,-71.76 -341.14,-352.79 -777.42,-362.04 -1252.53,-355.52 -93.64,1.29 -424.57,7.04 -492.72,37.84l-0.96 280.7c-39.52,-6.62 -28.88,-21.78 -37.9,-62.72 -12.15,-55.2 -43.43,-165.34 -74.64,-205.56 -63,6.84 -146.08,23.38 -208.17,37.48 -45.62,10.35 -167.13,42.38 -205.64,40.74 -63.44,-98.77 -44.01,-93.78 -141.71,-207.54 -123.93,-144.3 -11.46,-85.83 -89.64,-263.31 -167.78,11.6 -337.05,115.56 -360.42,292.14 -72.3,546.12 950.07,425.38 1196.35,758.41 106.08,143.45 128.95,355.89 98.89,530.35 -30.55,177.31 -114.24,302.02 -257.39,397.13 -156.41,103.92 -358.82,117.16 -541.09,81.9 -290.01,-56.1 -346.9,-197.09 -405.28,-239.09 -43.54,29.12 -161.04,231.3 -202.18,251.99l-0.04 -873.68c41.09,-12.39 32.74,21.74 59.49,127.55 12.45,49.22 26.06,94.55 41.78,142.89 92.32,283.99 232.27,520.61 556.52,568.39 111.27,16.39 220.53,20.03 323.37,-28.83 82.92,-39.41 156.45,-98.66 198.45,-178.66 100.72,-191.81 12.15,-404.73 -162.65,-503.11 -173.61,-97.71 -368.47,-138.23 -556.35,-197.34 -177.07,-55.71 -371.26,-117.12 -472.64,-274.15 -182.26,-282.32 -80.72,-795.2 451.03,-888.35 -40.48,-59.56 -184.82,-187.84 -207.08,-243.01 8.59,-26.6 18.26,-36.09 43.01,-48.45 14.96,2.05 156.99,72.47 185.23,85.29 114.9,52.12 282.94,113.97 375.08,160.02 46.64,23.31 142.68,81.4 192.08,46.02 5.22,-48.98 -32.45,-37.91 -8.97,-95.05 58.53,-142.4 131.9,-107.63 160.5,-169.51 21.09,-45.62 44.16,-109.67 59.81,-157.96 51.15,-157.79 30,-177.58 89.18,-177.11 31.68,-55.45 9.6,-57.98 -38.43,-103.15 5.39,-61.39 73.12,-118.56 65.5,-189.58 -28.29,-56.24 -784.88,-324.26 -928.64,-381.52 -82.55,-32.88 -234.35,-122.02 -316.6,-117.79 -33.86,14.93 -9.25,68.41 -62.09,138.7 -45.43,-5.89 -58.56,-34.37 -96.55,-35.16 -13.57,24.45 -67.26,122.77 -69.95,146.32l85.06 61.52c-0.95,49.89 -118.22,190.68 -152.91,241.47 -26.74,39.16 -53.72,78.72 -80.73,117.46 -38.58,55.32 -61.79,36.19 -75.07,115.23 -9.69,57.61 -10.74,117.33 -23.24,175.07 -10.06,46.44 -33.09,98.3 -47.6,144.49 -40.27,128.15 -51.23,191.41 12.88,311.49zm-1329.42 207.16c-117.44,-7.79 -242.79,-1.51 -358.98,-10.32l-340.16 -7.57c-27.61,4.73 -7.25,-3.58 -22.17,11.62l499.56 1338.77c30.9,-66.32 67.56,-248.4 89.59,-330.75l175.26 -670.37c21.86,-89.98 34.28,-75.38 6.6,-167.86 -15.79,-52.75 -30.3,-113.13 -49.7,-163.52zm542.92 485.24c103,6.45 162.88,49.01 272.05,21.05 117.33,-30.04 160.17,-27.93 272.92,12.2 43.77,-79.51 130.4,-368.09 111.96,-455.52 -137.65,-0.54 -269.31,-15.28 -404.38,-20.06 -66.9,-2.37 -132.49,-11.97 -198.68,-14.77 -56.77,-2.4 -141.59,-7.06 -196.9,-15.27 1.93,28.55 129.62,449.63 143.03,472.37zm483.06 204.13l-434.01 -32.04 102.61 334.86c17.34,57.69 84.75,306.79 107.26,337.19 15.41,-24.16 222.27,-614.31 224.14,-640.01z"/>
   <path class="fil1" d="M2298.54 5252.9c15.43,-42.27 5.28,-152.05 4.5,-207.27 -2.86,-209.85 -14.44,-1336.45 9.84,-1513.81 20.32,-148.38 63.83,-248.89 211.15,-298.34 118.67,-39.83 332.43,-19.83 456.39,3.74 110.04,20.92 97.38,54.37 98.1,156.94 0.58,83.66 0.02,167.53 0.02,251.21 0,304.51 8.67,725.64 -0.72,1014.93 1.25,68.61 6.95,433.22 -9.05,472.79 -34.72,85.85 -338.74,57.79 -421.08,74.52l0.03 28.52c51.97,10.67 1633.51,3.24 1815.06,3.24 56.5,0 216.98,6.93 261.32,-3.68l0 -939.44 -44.91 -3.76c-39.1,408.62 -162.28,824.22 -619.83,893.32 -109.52,16.54 -417.01,24.87 -526.87,-15.22 -66.3,-24.19 -58.21,-68.56 -58.98,-130.47 -3.07,-245.57 -7.37,-512.04 0.6,-756.38l-0.74 -107.45c59.18,-6.68 275.28,1.51 317.11,32.46 221.15,-14.79 234.47,524.73 262.68,573.83l35.97 0.84 0.01 -1257.05 -41.59 0.74c-9.96,114.99 -55.5,424.66 -132.96,503.33 -47.94,105.96 -334.83,120.64 -441.22,108.58 -6.06,-220.04 -0.38,-483.62 -0.45,-711.78 -0.02,-60.46 -16.62,-158.6 51.11,-185.33 101.03,-39.87 503.82,-54.71 646.96,1.29 39.58,15.49 116.98,57.29 139.99,90.02 63.89,32.14 153.15,198.09 185.66,271.75 52.06,117.99 76.75,248.45 77.55,378.48l44.59 -1.75 -0.04 -696.98 23.96 2.29 -24.07 -0.59 -0.22 -103.74 -2819.73 -0.04 0 26.69c371.77,0.49 456.19,157.69 456.31,508.75 0.04,121 10.83,900.34 -7.57,949.65 -13.04,-3.49 -11.06,-0.57 -25.79,-16.88l-270.1 -351.52c-187.67,-236.45 -386.59,-506.28 -573.77,-748.51 -39.31,-50.87 -263.4,-357.1 -292.75,-368.23l-652.89 1.58 0 23.57c468.51,46.19 434.73,260.38 434.73,642.55 0,204.96 11.29,908.83 -15.52,1061.36 -47.09,267.83 -181.69,272.78 -419.21,295.08l0 31.84 931.34 0.06 0 -33.49c-434.81,-0.64 -450.56,-243.19 -450.55,-614.52 0,-105.35 -5.94,-977.78 3.9,-1060.47 35.98,18.11 139.92,172.17 172.93,216.34 108.86,145.69 1112.48,1467.92 1129.82,1504.96l78.98 1.45zm2876.87 -1895.38c31.43,57.29 65.42,165.72 90.15,232.12 65.52,175.91 608.93,1606 622.44,1662.02l113.34 -0.47 397.66 -1541.03 47.57 146.73 21.34 74.23 401.22 1318.63c139.54,4.37 97.66,27.35 156.68,-138.56 61.61,-173.2 322.15,-946.3 360.2,-1028.52 9.57,-42.3 28.03,-112.43 53.55,-141.78 -1.22,-39.18 145.67,-429.32 172.64,-485.28 16.54,-45.29 64.27,-130.42 103.8,-151.67 66.48,-84.42 143.39,-75.95 234.2,-97.11l0 -21.45 -315.79 -4.24 -507.21 2.07 0 25.53c159.85,7.43 378.09,38.73 377.64,242.53 18.44,87.43 -68.19,376.01 -111.96,455.52 -8.96,42.23 -39.02,139.59 -61.91,170.88 -1.87,25.7 -208.73,615.85 -224.14,640.01 -22.51,-30.4 -89.92,-279.5 -107.26,-337.19l-102.61 -334.86 -49.05 -172.09c-13.41,-22.74 -141.1,-443.82 -143.03,-472.37 -46.24,-68.23 -25.06,-153.12 63.8,-173.28 86.91,-19.72 170.84,-12.12 257.32,-20.15l0 -25.05 -1091.89 -0.05 0 26.69c66.6,0 199.79,0.61 260.22,19.41 66.65,20.73 95.36,94.39 110.66,159.56 19.4,50.39 33.91,110.77 49.7,163.52 27.68,92.48 15.26,77.88 -6.6,167.86l-175.26 670.37c-22.03,82.35 -58.69,264.43 -89.59,330.75l-499.56 -1338.77c-30.75,-89.04 -23.32,-136.93 78.77,-156.63 79.2,-15.28 166.74,-14.04 247.4,-16.66l0 -26.08 -1085.17 -0.02 0 26.69c171.17,0 313.64,-16.89 350.73,148.19zm3330.69 -168.71c143.07,-26.5 292,24.48 406.7,104.79 73.82,51.69 211.53,196.14 238.46,287.84 31.21,40.22 62.49,150.36 74.64,205.56 9.02,40.94 -1.62,56.1 37.9,62.72l0.96 -280.7 -2.55 -411.87 -205.4 176.95c-29.54,-10.26 -85.62,-55.09 -116.4,-74.68 -169.35,-107.82 -268.62,-97.06 -466.47,-103.07 -531.75,93.15 -633.29,606.03 -451.03,888.35 101.38,157.03 295.57,218.44 472.64,274.15 187.88,59.11 382.74,99.63 556.35,197.34 174.8,98.38 263.37,311.3 162.65,503.11 -42,80 -115.53,139.25 -198.45,178.66 -102.84,48.86 -212.1,45.22 -323.37,28.83 -324.25,-47.78 -464.2,-284.4 -556.52,-568.39 -15.72,-48.34 -29.33,-93.67 -41.78,-142.89 -26.75,-105.81 -18.4,-139.94 -59.49,-127.55l0.04 873.68c41.14,-20.69 158.64,-222.87 202.18,-251.99 58.38,42 115.27,182.99 405.28,239.09 182.27,35.26 384.68,22.02 541.09,-81.9 143.15,-95.11 226.84,-219.82 257.39,-397.13 30.06,-174.46 7.19,-386.9 -98.89,-530.35 -246.28,-333.03 -1268.65,-212.29 -1196.35,-758.41 23.37,-176.58 192.64,-280.54 360.42,-292.14zm-6828.38 -607.67l0.21 26.34 81.31 0.13 -5.04 -557.89c23.08,27.08 53.42,103.13 77.73,141.36 28.74,45.2 57.77,92.99 85.82,138.82l169.89 277.71 90.24 0 0 -667.68 -81.55 0 6.76 544.14c-24.7,-25.96 -57.97,-104.02 -78.64,-141.69 -24.17,-44.04 -55.85,-92.21 -83.35,-134.69l-166.16 -267.76 -97.08 0 -0.14 641.21zm-467.68 -571.29c294.85,-69.54 352.93,464.59 89.69,527.78 -296.32,71.15 -359.49,-464.15 -89.69,-527.78zm-9.17 -70.47c-397.77,80.67 -311.1,752.06 110.39,669.42 385.52,-75.59 305.89,-753.84 -110.39,-669.42zm1615.96 668.23l375.95 -0.62 -0.01 -71.26 -289.98 -0.89 0.03 -239.13 258.59 0 1.9 -71.54 -258.87 0 -1.62 -211.47 275.42 -1.36 -0.05 -69.26c-89.35,-6.75 -263.91,-2.49 -361.74,-2.34l0.38 667.87zm-2313.54 0l85.99 0 0 -304.06 253.35 0 -1.1 -71.57 -252.28 0.02 0.03 -219.3 274.67 -1.8 -0.08 -68.01c-79.7,-8.27 -269.85,-3.33 -360.55,-3.15l-0.03 667.87zm1745.03 -594.71l202.39 0.41 0.41 594.3 88.14 0 0.02 -594.71 204.63 -0.05 -0.12 -72.36 -495.16 -0.3 -0.31 72.71z"/>
  </g>
 </g>
</svg>