<svg xmlns="http://www.w3.org/2000/svg" version="1.0" viewBox="0 0 4000 4000"><path d="M1939.5 1002.1c-7.1.4-18.8 1.3-26 1.9-7.1.7-24.7 2.7-39 4.6-14.3 1.8-32.7 4.5-41 5.9-8.2 1.4-16.8 3-19 3.5s-7.6 1.7-12 2.5c-4.4.9-14.1 3-21.5 4.6-7.4 1.7-16.9 4-21 5-4.1 1.1-12.2 3.1-18 4.4-5.8 1.4-11.4 3-12.5 3.5s-5.8 1.9-10.5 3-10.1 2.7-12 3.5-7.1 2.4-11.5 3.6-8.4 2.5-9 2.9c-.5.4-4.1 1.7-8 2.8-3.8 1.2-11.5 3.7-17 5.7s-13.8 5-18.5 6.7c-4.6 1.6-8.9 3.3-9.5 3.7-.5.5-2.8 1.4-5 2.1s-6.2 2.3-9 3.5c-2.7 1.2-7.5 3.2-10.5 4.5-3 1.2-7.8 3.3-10.7 4.6-2.8 1.3-5.5 2.4-5.8 2.4s-4.1 1.6-8.3 3.6-8.5 4-9.4 4.5c-1 .5-2.6 1.3-3.5 1.9-1 .5-7 3.4-13.3 6.5-6.3 3-16.8 8.3-23.2 11.7-6.4 3.5-16.5 9-22.5 12.2-5.9 3.2-15.1 8.5-20.3 11.7-5.2 3.1-12 7.3-15 9.2s-10.2 6.5-16 10.2-12.3 7.9-14.5 9.3c-2.2 1.5-11.4 7.9-20.5 14.4-9.1 6.4-20.6 14.8-25.7 18.5s-11.8 8.8-15 11.3-9.4 7.4-13.8 11c-4.4 3.5-16.1 13.4-26 21.9s-21.1 18.4-25 22c-3.8 3.6-15.5 15.1-26 25.6-10.5 10.4-22.2 22.4-26.1 26.5-3.8 4.1-12.9 14.2-20 22.5-7.2 8.2-18.2 21.3-24.5 29s-12.9 16-14.7 18.5-6 8.1-9.2 12.5c-3.3 4.4-9.1 12.2-12.8 17.4-3.7 5.1-9.5 13.5-13 18.5s-8.4 12.2-10.9 16.1c-2.5 3.8-6.1 9.5-8.1 12.5-1.9 3-4.8 7.4-6.3 9.7-1.6 2.3-2.9 4.5-2.9 4.9s-1 2.1-2.3 3.8-3 4.4-3.9 6.1c-.8 1.6-3.3 6.1-5.5 10-2.2 3.8-6.2 10.8-8.8 15.5s-6.4 11.4-8.3 15-7.6 14.8-12.7 25-10.8 21.9-12.7 26-7 15.8-11.3 26c-4.2 10.2-8.8 21.1-10.1 24.2-1.4 3.1-3.3 8.1-4.3 11s-3 8.7-4.5 12.8c-1.4 4.1-3.3 8.8-4 10.5-.8 1.6-2.2 5.9-3.1 9.5s-2.3 7.4-3 8.6-1.7 3.9-2.1 6-1.8 6.9-3.1 10.6-3.3 10-4.3 14c-1.1 4-3.8 14.3-6.1 22.8-2.2 8.5-5.8 22.5-7.9 31-2 8.5-5 21.1-6.5 28s-3.3 16.1-4 20.5-2.4 14.5-3.8 22.5-3.3 20.1-4.2 27c-.8 6.9-2.2 17.7-3 24s-2 16.7-2.5 23-1.4 20.9-2 32.5c-.5 11.5-1 35.8-1 54 0 18.1.5 42.4 1 54 .6 11.5 1.5 26.2 2 32.5s1.7 16.7 2.5 23 2.2 17.1 3 24c.9 6.9 2.8 19 4.2 27s3.1 18.1 3.8 22.5 2.5 13.4 3.9 20c1.5 6.6 4.5 19.4 6.7 28.5 2.1 9.1 5.7 23.2 7.9 31.5 2.2 8.2 4.9 18.6 6 23 1.2 4.4 2.7 9.1 3.4 10.5.8 1.4 2.2 5.9 3.1 10 1 4.1 2.3 8.4 3 9.5.7 1.2 2.3 5.7 3.5 10 1.2 4.4 2.6 8.4 3 9 .4.5 1.9 4.4 3.3 8.5s4.2 11.8 6.2 17c2.1 5.2 4.8 12.2 6 15.5 1.3 3.3 4.2 10.3 6.5 15.5s5.3 12.2 6.7 15.5 4.5 10.3 7 15.5 8 16.5 12.2 25c4.3 8.5 9.4 18.4 11.3 22s4.9 9.2 6.7 12.5 4.8 8.5 6.7 11.6 3.4 5.9 3.4 6.2 1.4 2.6 3 5c1.6 2.5 3 4.9 3 5.4s1.3 2.7 3 4.9c1.6 2.1 3 4.4 3 5s1.4 2.8 3 4.9c1.7 2.1 3 4.3 3 5s.6 1.8 1.3 2.4c.8.6 4.2 5.5 7.6 10.8 3.4 5.4 9.2 14.1 12.9 19.4s9.8 14 13.5 19.3c3.8 5.3 10.5 14.5 15 20.4 4.4 5.9 9.3 12.3 10.8 14.2 1.6 1.9 5.8 7.3 9.6 12 3.7 4.7 9.6 11.9 13.1 16s7.6 8.8 9.1 10.5c1.5 1.6 5.4 6.1 8.7 10 3.3 3.8 9.5 10.8 13.9 15.5s16.6 17.1 27 27.5c10.5 10.5 24 23.6 30 29 6.1 5.5 14 12.5 17.5 15.6 3.6 3.1 10.1 8.7 14.5 12.3 4.4 3.7 10.3 8.6 13 10.9 2.8 2.4 6.8 5.6 9 7.2 2.2 1.7 7.4 5.7 11.5 9s8.5 6.7 9.7 7.5 9.1 6.5 17.5 12.6 24.1 16.8 34.8 23.9c10.7 7 21.4 14.1 23.7 15.6 2.3 1.6 4.4 2.9 4.6 2.9.3 0 4.4 2.4 9.1 5.2 4.8 2.9 10.3 6.2 12.4 7.4 2 1.1 7.8 4.3 12.7 7.1 5 2.8 12.5 6.9 16.7 9.1 4.2 2.3 14.8 7.7 23.5 12 8.7 4.4 19.6 9.7 24.3 11.9s10.1 4.7 12 5.5c1.9.9 5.6 2.5 8.1 3.6 2.5 1.2 7 3 10 4.2s7.7 3.2 10.6 4.6c2.8 1.3 5.6 2.4 6.1 2.4s3.1 1 5.8 2.2 7.8 3.2 11.4 4.5 9.9 3.5 14 5c4.1 1.4 8 2.9 8.5 3.3.6.4 4.6 1.8 9 3 4.3 1.2 8.8 2.8 10 3.5 1.1.7 3.6 1.6 5.5 2 1.9.3 5.8 1.3 8.5 2.1 2.8.9 5.9 1.9 7 2.4s6.3 2.1 11.5 3.5 15.4 4.1 22.5 6.1c7.2 1.9 18.6 4.8 25.5 6.4s14.1 3.4 16 4c1.9.5 6.4 1.5 10 2 3.6.6 10.3 2 15 3 4.7 1.1 14.8 3.1 22.5 4.6 7.7 1.4 23.5 3.8 35 5.5 11.6 1.6 27.3 3.6 35 4.4s24.1 2.2 36.4 3c14.5 1 37.7 1.5 65.6 1.5 28.4 0 50.9-.5 66.1-1.5 12.6-.9 28.8-2.2 35.9-3 7.2-.8 22.9-2.7 35-4.4 12.1-1.6 22.7-3.2 23.5-3.5s7.8-1.7 15.5-3c7.7-1.4 21.4-4.1 30.5-6 9.1-2 22.1-4.9 29-6.6 6.9-1.6 18.4-4.5 25.5-6.4 7.2-1.8 17.3-4.6 22.5-6.1s12.4-3.7 16-5c3.6-1.2 8.3-2.6 10.5-3s4.6-1.1 5.2-1.7c.7-.6 4.8-2.1 9-3.4 4.3-1.2 12.1-3.9 17.3-5.8s13.1-4.8 17.5-6.4c4.4-1.7 14.8-5.8 23-9.2 8.3-3.4 17.4-7.3 20.3-8.6s5.5-2.4 5.7-2.4c.3 0 4.4-1.8 9.2-4.1 4.9-2.3 17.1-8.3 27.3-13.3 10.2-5.1 26-13.4 35.2-18.4 9.2-5.1 19.6-10.9 23-13 3.5-2.1 7.4-4.3 8.8-5 1.4-.6 5.2-3 8.5-5.1 3.3-2.2 9.2-5.8 13-8.2 3.9-2.4 13.3-8.6 21-13.8s17.2-11.8 21.2-14.6c3.9-2.7 11.6-8.2 17-12.1s13.9-10.4 18.8-14.3c5-3.9 13.9-11 19.9-15.9 6.1-4.8 14.8-12 19.5-16.1 4.8-4 11.7-10.1 15.5-13.5 3.9-3.3 10.4-9.2 14.5-13.1 4.2-3.8 16.4-15.7 27.1-26.5 10.8-10.7 23.7-24 28.7-29.5s14.4-16.1 20.8-23.5c6.5-7.4 15.1-17.7 19.2-22.8s9.1-11.4 11.1-14 7.7-10.1 12.7-16.7c4.9-6.6 11.1-14.9 13.6-18.5 2.6-3.6 6.8-9.7 9.5-13.5 2.6-3.9 8.5-12.5 13.1-19.3s8.3-12.5 8.3-12.8c0-.2 2.6-4.5 5.8-9.4 3.1-4.9 7-11.1 8.5-13.7 1.6-2.6 3.8-6.4 5-8.3s3.8-6.4 5.7-10c2-3.6 5.3-9.7 7.5-13.5 2.1-3.9 5.3-9.7 7.2-13 1.8-3.3 7.5-14.6 12.6-25 5.2-10.5 11-22.5 13-26.7 2.1-4.2 3.7-8 3.7-8.3s1.2-3.2 2.6-6.3 4.8-10.9 7.5-17.3c2.7-6.5 4.9-12 4.9-12.4 0-.3.8-2.5 1.9-4.8 1-2.3 3.1-7.6 4.6-11.7s4.3-11.8 6.1-17c1.9-5.2 4.5-12.9 5.8-17 1.4-4.1 3.1-9.5 4-12s2.5-7.4 3.6-11c1.2-3.6 3.5-11.5 5.2-17.5 1.6-6.1 4.6-16.9 6.5-24 1.9-7.2 4.7-18.4 6.3-25 1.5-6.6 3.3-14.5 4-17.5.6-3 2.4-11.4 4-18.5 1.6-7.2 4.5-22.9 6.4-35 2-12.1 4.2-27.6 5-34.5.9-6.9 2.2-18.1 3-25 .9-6.9 2.1-19.3 2.8-27.5.9-10.1 1.3-34.3 1.3-74s-.4-63.9-1.3-74c-.7-8.3-1.9-20.5-2.7-27.3-.8-6.7-2.2-17.9-3-25-.9-7-3.1-22.6-5.1-34.7-1.9-12.1-3.9-23.8-4.4-26-.6-2.2-1.9-8.3-3-13.5s-2.5-11.5-3-14c-.6-2.5-2.4-10.1-4-17s-4.5-18.4-6.3-25.5c-1.9-7.2-4.8-18-6.5-24.1-1.6-6.1-3.4-11.9-3.9-13-.6-1-2-5.7-3.3-10.4-1.2-4.7-2.6-9-3-9.5-.4-.6-1.7-4.2-2.9-8-1.1-3.9-3.8-12-6-18-2.2-6.1-5.1-14.2-6.5-18-1.5-3.9-3.3-8.4-4.1-10.2-.8-1.7-1.5-3.4-1.5-3.8s-2.3-6.2-5.1-12.8c-2.9-6.7-6.2-14.5-7.5-17.4-1.3-2.8-2.4-5.5-2.4-5.8s-1.6-4.1-3.6-8.3-4-8.4-4.5-9.2-1.8-3.5-2.9-6c-1.2-2.5-5.4-11-9.4-19s-8.7-17-10.3-20-4.1-7.5-5.5-10-4-7.2-5.8-10.5-4.4-8-5.9-10.5-4.5-7.4-6.6-11-5.2-8.8-7-11.5c-1.8-2.8-5.4-8.4-8.1-12.5s-5.4-8.4-5.9-9.5c-.6-1.1-5.4-8.1-10.6-15.5s-10.1-14.5-10.9-15.7-5.7-7.9-10.8-15c-5.1-7-11.4-15.6-14-19s-8.3-10.6-12.6-16c-4.4-5.4-10.5-12.7-13.5-16.3-3.1-3.6-10.1-11.7-15.6-18s-12-13.8-14.5-16.5c-2.5-2.8-15.3-15.8-28.5-29s-26.2-26-29-28.5c-2.7-2.4-10.2-9-16.5-14.5-6.3-5.6-14.4-12.6-18-15.6s-11.9-9.7-18.5-15-16.5-12.9-22-17.1c-5.5-4.1-16-11.7-23.3-16.9s-17.6-12.4-23-16.2c-5.3-3.7-11.9-8.2-14.7-9.9-2.7-1.7-7.2-4.6-10-6.3-2.7-1.8-9-5.7-14-8.8-4.9-3-10.6-6.4-12.5-7.5-1.9-1-7.9-4.5-13.2-7.6-5.4-3.1-14.2-7.9-19.5-10.7-5.4-2.9-16.6-8.6-24.9-12.8s-16-8.1-17.1-8.6c-1.1-.6-3.3-1.6-4.9-2.4-1.6-.7-5.6-2.6-8.9-4.1-3.3-1.4-9.6-4.3-14-6.3s-10.2-4.5-13-5.5c-2.7-1.1-8.6-3.4-13-5.1-4.4-1.8-9.3-3.8-11-4.6-1.6-.7-5.5-2.1-8.5-3.1s-6.4-2.3-7.5-3-5.4-2.2-9.5-3.5c-4.1-1.2-8-2.5-8.5-3-.6-.4-4.7-1.8-9-3-4.4-1.1-8.4-2.5-9-2.9-.5-.4-5-1.9-10-3.3-4.9-1.4-11-3.2-13.5-4s-9.4-2.9-15.5-4.6c-6-1.7-15.5-4.2-21-5.7-5.5-1.4-15.6-3.9-22.5-5.5s-15.6-3.6-19.5-4.4c-3.8-.8-11.5-2.4-17-3.6-5.5-1.1-17.4-3.4-26.5-5s-26.6-4.3-39-5.9c-12.4-1.7-29.2-3.7-37.5-4.5-8.2-.8-23-1.9-32.9-2.5-9.8-.5-37.9-.9-62.5-.9-24.5.1-50.4.5-57.6 1M2052 1144c9.1.6 24.2 1.7 33.5 2.5 9.4.9 28.5 3.1 42.5 5.1 14 1.9 28.4 4.2 32 5.1 3.6.8 11 2.3 16.5 3.3s16.5 3.4 24.5 5.3c8 2 19.5 4.9 25.5 6.6 6.1 1.7 15.7 4.4 21.5 6.1 5.8 1.6 11.4 3.4 12.5 4 1.1.5 4.5 1.6 7.5 2.5s6.9 2.3 8.5 3c1.7.8 6.4 2.6 10.5 3.9 4.1 1.4 11.3 3.9 16 5.6s10.1 3.8 12 4.6 4.3 1.9 5.2 2.4c1 .6 2.3 1 3 1s3.5 1.1 6.2 2.5 5.3 2.5 5.8 2.5 4.7 1.8 9.4 4 8.7 4 8.9 4 10 4.7 21.7 10.5c11.7 5.7 24.7 12.3 28.8 14.6 4.1 2.2 11.8 6.3 17 9.1s10.8 6 12.5 7.2c1.6 1.2 4.6 2.9 6.5 3.9 1.9.9 5.1 2.7 7 3.9s8 5.1 13.5 8.6 15.4 10 22 14.5c6.6 4.4 16.3 11.2 21.5 15.1s11 8.1 12.9 9.4 10.2 7.8 18.5 14.5c8.3 6.6 18.3 14.8 22.1 18.1 3.9 3.3 12.2 10.8 18.5 16.6s17.9 16.8 25.9 24.5c7.9 7.7 21.4 21.6 30 31 8.6 9.3 18.3 20.1 21.5 24 3.2 3.8 7.3 8.6 9.1 10.7 1.8 2 6.1 7.3 9.6 11.8s9.2 11.8 12.6 16.3 10.4 14 15.5 21.1c5.1 7 9.8 13.5 10.3 14.4.6.8 3.7 5.6 7 10.6s8.8 13.6 12.2 19.1 7.6 12.5 9.4 15.5c1.7 3 4.1 7.3 5.4 9.5 1.2 2.2 6 10.7 10.5 19 4.5 8.2 12.7 24.1 18.1 35.2 5.5 11.1 9.9 20.4 9.9 20.8 0 .3 1.4 3.5 3 7 1.7 3.5 3 6.7 3 7s1.3 3.3 2.9 6.7c1.6 3.5 5.3 12.4 8.1 19.8 2.9 7.4 6.2 16.2 7.5 19.5s2.7 7.3 3 9c.4 1.6 1.3 4 2.1 5.1.7 1.2 2 5 2.9 8.5s2.4 8 3.2 9.9 2.8 8 4.4 13.5c1.7 5.5 4.3 14.9 5.9 21 1.6 6 3.8 14.4 4.9 18.5s2.7 10.4 3.5 14c.9 3.6 2.3 10.3 3.2 15s2.4 12.3 3.5 17c1 4.7 2.8 15.2 3.9 23.5 1.1 8.2 2.6 19.3 3.5 24.5.8 5.2 2.1 17.6 3 27.5.8 9.9 1.9 25.2 2.5 34 .5 8.8 1 31.9 1 51.5 0 19.5-.5 42.9-1 52-.6 9.1-1.7 24.6-2.6 34.5-.8 9.9-2.6 25.4-3.9 34.5-1.4 9.1-3.1 21-3.9 26.5-.9 5.5-2.2 13.1-3 17-.8 3.8-2.1 10.6-3 15s-2.3 10.9-3.2 14.5-3.4 13.5-5.5 22c-2.2 8.5-5.3 19.8-6.9 25s-3.7 11.7-4.6 14.5c-.8 2.7-2.6 8.5-3.9 12.7s-2.8 8.5-3.4 9.5c-.5 1-1.7 4.3-2.6 7.3s-2.5 7.5-3.5 10-4.2 10.6-7 18c-2.9 7.4-6.8 17.1-8.7 21.5s-4.6 10.4-5.9 13.3-2.4 5.5-2.4 5.8-4.5 9.7-10 20.9-12.5 25-15.6 30.7-6.9 12.5-8.4 15.3c-1.5 2.7-3.6 6.6-4.7 8.5-1.2 1.9-3.7 6.2-5.6 9.5-2 3.3-4.4 7.3-5.3 9-.9 1.6-6.2 10-11.8 18.6-5.5 8.5-10.5 16.3-11.1 17.1-.5.9-2.4 3.6-4.1 5.9-1.7 2.4-4.1 6-5.5 7.9-1.3 1.9-6.4 8.9-11.4 15.5-4.9 6.6-13.9 18.1-20 25.5-6 7.4-13.7 16.7-17 20.6-3.3 3.8-11.2 12.8-17.5 19.8s-21 22-32.6 33.4c-11.5 11.4-25.6 24.8-31.3 29.7-5.7 5-13.1 11.4-16.5 14.3-3.3 2.8-12.4 10.3-20.1 16.5s-19.8 15.6-26.9 20.8c-7.1 5.1-18 12.8-24.1 16.9-6.2 4.1-14.3 9.5-18.1 11.9s-8 5.2-9.4 6.1c-1.4 1-4.3 2.7-6.5 3.9s-8 4.6-13 7.7c-4.9 3.1-11.7 7.1-15 8.9s-10.5 5.7-16 8.7c-5.5 2.9-17 8.8-25.5 13s-19.8 9.7-25 12.1-15 6.7-21.7 9.6c-6.6 2.8-12.5 5.1-13 5.1-.4 0-2.1.7-3.8 1.6-1.6.9-6.6 2.9-11 4.5-4.4 1.7-11.8 4.4-16.5 6s-13 4.5-18.5 6.5c-5.5 1.9-14.5 4.8-20 6.5-5.5 1.6-17 4.9-25.5 7.3-8.5 2.3-21.6 5.7-29 7.4-7.4 1.8-20.2 4.5-28.5 6.1-8.2 1.7-26 4.6-39.5 6.5s-32.6 4.2-42.5 5c-9.9.9-26.1 2.1-36 2.7-9.9.7-31.9 1.2-49 1.2-17 0-39.1-.5-49-1.2-9.9-.6-26.1-1.8-36-2.7-9.9-.8-30.1-3.3-45-5.4-14.8-2.1-30.8-4.8-35.5-5.9-4.7-1-10.5-2.2-13-2.5-2.5-.4-7.9-1.6-12-2.6-4.1-1.1-15.1-3.8-24.5-6.1-9.3-2.3-20.9-5.5-25.7-7-4.8-1.6-11.1-3.5-14-4.3-2.9-.9-9.8-3.1-15.3-5s-13.8-4.8-18.5-6.5c-4.7-1.6-12.1-4.3-16.5-6-4.4-1.6-9.3-3.6-11-4.5-1.6-.9-3.4-1.6-3.8-1.6-.5 0-2.3-.6-4-1.4-1.8-.8-6.6-2.8-10.7-4.6s-9.7-4.3-12.5-5.5c-2.7-1.2-6.6-2.8-8.5-3.5-1.9-.8-4.2-1.9-5-2.5-.8-.7-2.5-1.6-3.8-2-1.2-.3-9.3-4.2-18-8.6-8.6-4.4-18.8-9.7-22.7-11.7-3.8-2-8.6-4.6-10.5-5.7s-8.9-5.1-15.5-8.9-14.9-8.8-18.4-11c-3.5-2.3-9.7-6.1-13.8-8.6-4-2.5-12.6-8.1-19.1-12.4-6.4-4.4-17.7-12.5-25.1-18-7.4-5.6-15.3-11.4-17.5-13-2.3-1.6-9-7-15.1-12-6-5-16.2-13.5-22.5-19.1-6.3-5.5-14-12.3-17-15-3-2.8-13.3-12.7-22.8-22-9.5-9.4-23.1-23.2-30-30.9-7-7.6-16-17.7-20-22.5-4.1-4.7-12.6-15.1-19-23.1-6.3-8-13.2-16.5-15.2-19s-8.9-12-15.3-21.2c-6.4-9.1-11.7-16.9-11.7-17.2 0-.4-2.8-4.8-6.2-9.9-3.4-5-7.3-11-8.7-13.2-1.3-2.2-3.7-5.9-5.3-8.2-1.5-2.3-2.8-4.4-2.8-4.7 0-.4-2.9-5.5-6.4-11.4s-8.9-15.4-12-21.2-6.6-12.5-7.7-15c-1.2-2.5-2.5-5.2-3-6s-3.1-6-5.8-11.5-6.8-14.1-9.1-19c-2.3-5-4.7-10.4-5.5-12-.7-1.7-2.9-6.6-4.8-11-2-4.4-5-11.6-6.7-16-1.8-4.4-4.3-10.9-5.6-14.5s-3.7-10.3-5.4-15-5.1-14.4-7.5-21.5c-2.3-7.2-5.5-17.1-7-22-1.5-5-3.3-11.3-4.1-14-.7-2.8-2.7-10-4.3-16-1.6-6.1-3.9-15.1-5.1-20-1.2-5-2.7-11.5-3.2-14.5s-2-10.5-3.3-16.5c-1.3-6.1-3.6-19.3-5.1-29.5s-3.3-23.9-4-30.5-2-20.8-2.8-31.5-2-31.4-2.6-46c-.8-18.9-.8-34.2 0-53 .6-14.6 1.7-35.3 2.6-46 .8-10.7 2.1-24.9 2.8-31.5s2.5-20.3 4-30.5 3.6-22.3 4.7-27 2.4-11.7 3-15.5c.5-3.9 1.6-9 2.4-11.5s2.3-8.3 3.4-13c1-4.7 3.5-14.8 5.5-22.5s4.6-16.5 5.6-19.5 2.6-8 3.4-11 3.1-10 5-15.5 4.8-13.8 6.4-18.5 3.4-9.4 4-10.5 2-4.7 3.1-8 3.7-10.3 5.9-15.5 5.1-12.2 6.6-15.5 3.8-8.5 5.2-11.5 3.5-7.8 4.8-10.5c1.3-2.8 5.7-12 10-20.5 4.2-8.5 9.8-19.6 12.4-24.5 2.7-5 6-11 7.4-13.5s4.3-7.4 6.3-11c2.1-3.6 4.6-7.9 5.5-9.6.9-1.6 2.6-4.4 3.8-6.1s2.2-3.4 2.2-3.7c0-.4 1.5-2.8 3.3-5.5 1.7-2.7 4-6.1 4.9-7.7 1-1.6 3.2-5.2 5-7.9 1.7-2.8 7.7-11.4 13.2-19.3 5.6-7.9 11.3-16.2 12.8-18.4 1.5-2.3 3.1-4.4 3.5-4.7.5-.3 3.4-4 6.5-8.1s9-11.6 13-16.6c4-5.1 10.9-13.4 15.3-18.6s13.4-15.4 20-22.6c6.6-7.3 21-22.1 32-33 11-10.8 25.4-24.4 32-30.2 6.5-5.8 17.3-15 24-20.6 6.6-5.5 17.1-13.9 23.1-18.6 6.1-4.7 18.3-13.7 27.1-20 8.9-6.2 17.4-12.1 19-13 1.5-1 5.4-3.4 8.5-5.5 3.2-2.1 11.4-7.3 18.2-11.6 6.9-4.2 12.8-7.7 13.2-7.7s1.5-.6 2.3-1.4c.9-.8 3.6-2.5 6.1-3.9 2.5-1.3 7-3.8 10-5.4 3-1.7 10-5.5 15.5-8.5s18.8-9.7 29.5-15 20.6-9.9 22-10.3 4.1-1.6 6-2.6 5.8-2.8 8.5-3.9c2.8-1.2 6.8-3 9-4 2.2-.9 9.6-3.9 16.5-6.5 6.9-2.5 14.5-5.5 17-6.5s7-2.6 10-3.5 6.9-2.3 8.5-3c1.7-.7 6.6-2.5 11-4 4.4-1.4 12.5-3.9 18-5.6 5.5-1.6 15-4.3 21-6 6.1-1.7 15.7-4.2 21.5-5.5s12.8-3 15.5-3.8c2.8-.9 8.2-2 12-2.6 3.9-.6 11.1-2 16-3.1 5-1 20.2-3.5 33.9-5.4s32.9-4.2 42.5-5c9.7-.9 23.7-2 31.1-2.4s30.4-.9 51-.9c20.6-.1 44.9.3 54 .8"/><path d="M1974.7 1321.5c-1 2.1-1.7 6-1.7 9.2 0 3.6 1.8 12.4 5 24.3 2.8 10.3 5.5 22.3 6 26.6.7 5.1.7 14.5 0 27.4-.7 15.5-1.5 21.6-3.5 29.5-1.4 5.4-4.2 13.5-6.1 17.9-2 4.5-4.9 10.6-6.6 13.6s-6.5 10.7-10.7 17c-4.1 6.3-11.3 16.4-16 22.5-4.6 6-10.3 13.2-12.5 15.9-2.3 2.7-8.6 10.1-14 16.5-5.5 6.4-14.1 16.1-19 21.6-5 5.5-14.9 16.3-22.1 23.9-7.1 7.6-26.3 25.9-42.5 40.5s-36 32.6-44 40-17.9 16.6-22 20.5c-4.1 4-11.5 11-16.5 15.6-4.9 4.6-17.5 16.7-27.8 26.9-10.4 10.2-28.6 28.5-40.5 40.6s-27.8 28.7-35.2 36.9-18.4 20.6-24.5 27.5c-6 7-12.8 14.9-15 17.6s-7.4 9-11.5 14-10.2 12.6-13.5 17-6.2 8.2-6.6 8.5c-.3.3-3.4 4.5-7 9.3-3.5 4.9-7.9 11-9.7 13.5-1.8 2.6-8.1 11.9-14 20.7s-12.3 18.6-14.2 21.8-4.7 7.7-6.1 10-4.1 6.9-6.1 10.2-5.7 10-8.4 15c-2.6 4.9-7.7 15.1-11.4 22.5s-8.8 18.2-11.3 24c-2.4 5.8-5.6 13.4-7 17-1.5 3.6-4 10.3-5.7 15s-4.4 12.8-6.1 18c-1.6 5.2-4.3 14.2-5.9 20-1.7 5.8-4.6 17.5-6.5 26s-4.4 21.1-5.5 28c-1 6.9-2.7 18.8-3.7 26.5-1.4 11.1-1.8 21.5-1.8 51 0 24.1.4 40.7 1.3 47.5.7 5.8 2.2 17.5 3.3 26 1.2 8.9 3.7 21.4 5.9 29.5 2.2 7.7 5.3 18.3 6.9 23.5 1.7 5.2 4.4 13.3 6.1 18 1.6 4.7 3.6 9.6 4.4 11 .7 1.4 1.9 4.3 2.6 6.5s5 11.6 9.5 21c4.6 9.3 10.5 20.6 13.1 25s7.9 12.7 11.7 18.5c3.9 5.8 9.9 14.3 13.4 19s11.4 14.3 17.6 21.4 17.1 18.4 24.2 25c7.2 6.7 16.4 14.8 20.5 18.2 4.1 3.3 11.3 8.9 16 12.5s12.1 9 16.5 12c4.4 3.1 12.5 8.4 18 11.9 5.4 3.5 14.9 9.2 21 12.8 6 3.5 17.3 9.9 25 14.2 7.7 4.2 20.5 11.1 28.5 15.2 8 4.2 19.5 10 25.5 13.1 6.1 3.1 17.1 7.9 24.5 10.7s18.2 6.9 24 9.1 18.6 6.7 28.5 10 23.2 7.1 29.5 8.5c6.3 1.3 12.8 2.4 14.3 2.4s4.1-.7 5.6-1.5c1.6-.8 3.4-2.8 4.1-4.4.9-2.3.9-3.8 0-6.5-.6-1.9-2.5-4.9-4.3-6.8s-5.7-5.2-8.7-7.5c-3-2.2-11.1-7.3-17.9-11.2-6.8-4-15.2-9.3-18.5-11.9-3.4-2.6-10-8.1-14.7-12.3-4.7-4.1-12.7-11.8-17.7-17s-11.9-13-15.5-17.4c-3.5-4.4-9.5-12.7-13.4-18.5-3.8-5.8-7.8-12.1-8.8-14s-3.5-6.9-5.6-11c-2-4.1-5.1-11.1-6.8-15.5s-4.9-14.1-7.1-21.5-5.4-20.6-7-29.2-3.5-21.9-4.1-29.5c-.7-8.3-.9-20.8-.5-31.3.3-9.6 1.3-22 2.1-27.5s2.4-14.7 3.5-20.5c1.2-5.8 3.7-16.1 5.6-23s5.1-17 7-22.5 4.3-11.8 5.3-14 2.2-5.1 2.6-6.5 2.6-6.3 4.7-11c2.2-4.7 6.5-13.5 9.5-19.5 3-6.1 8.8-16.6 12.8-23.5s8.8-15 10.7-18c1.8-3 6.5-10.2 10.3-15.8 3.9-5.7 7.7-11.4 8.5-12.6s4.4-6.2 7.9-11.1c3.6-5 11.2-15.1 17-22.5s15-18.9 20.5-25.5 11.8-14.1 14-16.6c2.3-2.5 7.5-8.3 11.6-13 4.1-4.6 13.4-14.7 20.5-22.4 7.2-7.7 25.2-26.1 40-40.8 14.9-14.8 30.6-30 35-33.7 4.4-3.6 10.1-8.1 12.6-9.8s6.6-3.6 9.1-4.2c3.2-.8 5.6-.9 8.4-.1 2.2.6 6.2 2.5 8.9 4.2 2.8 1.7 9.7 7.4 15.5 12.5s22 21.1 36 35.6c14.1 14.5 29.8 30.8 35 36.3 5.3 5.5 14 14.9 19.6 21 5.5 6 14 15.7 18.9 21.5 5 5.8 12.2 14.3 16.1 19 3.8 4.7 11.2 13.9 16.5 20.5 5.2 6.6 10.2 13.1 11.2 14.5.9 1.4 3.7 5.2 6.2 8.5 2.4 3.3 8.9 12.5 14.3 20.5 5.5 8 12.5 18.5 15.6 23.5 3.1 4.9 6.8 11.2 8.2 14 1.4 2.7 3.2 5.7 4 6.5.7.9 5.8 10.5 11.2 21.5 5.5 11 12.1 25.2 14.6 31.5 2.6 6.3 5.5 13.7 6.5 16.5 1.1 2.7 3.1 8.8 4.6 13.5s4.2 14.6 6.1 22 4.4 20.5 5.6 29c1.6 11.9 2.1 20.5 2.1 37 0 16.7-.5 24.6-2.1 35.6-1.2 7.8-3.5 19.2-5.1 25.5-1.7 6.3-4.7 15.9-6.7 21.4-1.9 5.5-6 14.7-9.1 20.5s-9 15.7-13.2 22c-4.1 6.3-9.8 14.4-12.5 18-2.8 3.6-7.6 9.7-10.8 13.7-3.2 3.9-12.4 13.8-20.5 22-8.2 8.2-20.4 19.6-27.3 25.4-6.9 5.7-14.4 12.4-16.8 14.9s-5.1 5.8-5.9 7.4c-1 1.9-1.3 4.3-1 7 .4 2.5 1.4 4.8 2.7 5.8 1.2 1 3.7 1.8 5.4 1.8 1.8 0 7-1.3 11.7-2.9 4.6-1.6 15.8-6.2 24.9-10.1 9.1-4 19.7-8.5 23.5-10 3.9-1.5 16.9-7.4 29-12.9 12.1-5.6 30.1-14.4 40-19.5 9.9-5.2 23.9-12.7 31-16.8 7.2-4.1 17.2-10 22.3-13.2 5.1-3.1 15-9.6 22-14.3s19.5-13.6 27.7-19.8c8.3-6.2 20.4-15.9 27-21.6s18-16.2 25.3-23.4c7.4-7.1 18.2-18.6 24.2-25.5s14-16.6 17.7-21.5c3.8-5 10.3-14 14.4-20 4.2-6.1 10.3-15.5 13.6-21 3.4-5.5 8.8-15.4 12.1-22 3.4-6.6 7.9-15.8 10-20.5 2.2-4.7 4.3-9.6 4.7-11s1.4-3.9 2.2-5.6c.8-1.8 2.8-6.9 4.4-11.5s4.3-12.9 6-18.4c1.6-5.5 4.6-16.3 6.5-24s4.6-21 5.9-29.5 2.9-20.7 3.5-27c.5-6.3 1-18.3 1-26.5 0-8.3-.5-20-1-26-.6-6.1-1.9-17.3-3.1-25-1.1-7.7-3.5-20.5-5.4-28.5-1.8-8-4.9-19.7-6.9-26s-4.9-15.3-6.6-20-3.7-9.9-4.5-11.7c-.8-1.7-1.5-3.4-1.5-3.7s-2.1-5.2-4.6-10.8c-2.5-5.7-7.5-16-10.9-23-3.5-7-9.6-18.2-13.6-25s-9.7-16.1-12.7-20.8c-3.1-4.7-8.7-13-12.6-18.5s-8.8-12.3-10.9-15c-2.1-2.8-5.5-7.3-7.6-10-2.1-2.8-9.6-11.7-16.6-19.8s-20-22.1-28.9-31c-8.8-9-21.3-20.8-27.6-26.3s-14.6-12.4-18.5-15.4c-3.8-3.1-9.5-7.4-12.5-9.6-3-2.3-10.4-7.6-16.5-11.9-6-4.2-17.4-11.5-25.2-16.1-7.8-4.7-17.4-9.6-21.3-10.9-4-1.4-9.3-2.7-11.9-3.1-2.5-.3-5.8-.1-7.3.5-1.5.5-3.5 2.2-4.4 3.6-1.2 1.9-1.7 5.2-2 12.3-.1 5.6-1.1 12.9-2.2 17.2-1.1 4.1-3.4 10.5-5.1 14.2-1.6 3.7-4.8 9.4-6.9 12.6-2.2 3.2-7 8.6-10.6 12-4.4 4.1-9.5 7.5-15 10.2-4.6 2.2-11.4 4.7-15.2 5.5-4.5.9-12.8 1.5-23.4 1.5s-19-.6-23.3-1.5c-3.8-.8-10.3-2.6-14.5-4.1-4.2-1.4-10.6-4.2-14.1-6.2-3.5-1.9-9.6-6.1-13.5-9.2-4-3.1-9.4-8.6-12.2-12.1-2.7-3.5-6.2-8.2-7.6-10.5s-4.2-7.9-6.2-12.6c-1.9-4.7-4.2-12.3-5-16.9s-1.8-11.6-2.1-15.6c-.4-3.9-.2-12 .5-18 .6-6 2-14.5 3-18.9 1.1-4.3 2.8-11.3 3.9-15.4 1-4.1 2.7-10.7 3.6-14.5.9-3.9 3-13.1 4.7-20.5 1.6-7.4 4.5-20.7 6.4-29.5 1.8-8.8 4.9-24.8 6.9-35.5 1.9-10.7 4.3-26.5 5.4-35s2.5-22.9 3.2-32c.7-10 .9-24 .6-35.5-.4-10.7-1.5-25.1-2.7-32.8-1.1-7.6-3.4-19.1-5.1-25.5-1.6-6.4-4.1-15.3-5.6-19.7-1.4-4.4-4.6-13.2-7-19.5-2.5-6.3-5.6-14-7-17-1.3-3-4-8.7-6-12.5-2-3.9-6.6-11.3-10.2-16.5-3.5-5.2-10.7-14.8-15.9-21.4-5.2-6.5-14-16.9-19.5-23-5.6-6.1-14.3-15.3-19.4-20.4s-13.2-12.7-18-16.8c-4.9-4.2-11.8-9.5-15.4-12-3.7-2.4-8.6-5.1-10.9-5.9s-4.6-1.5-4.9-1.5c-.4 0-1.5 1.6-2.4 3.5"/></svg>