<?xml version="1.0" encoding="UTF-8" standalone="no"?><!DOCTYPE svg PUBLIC "-//W3C//DTD SVG 1.1//EN" "http://www.w3.org/Graphics/SVG/1.1/DTD/svg11.dtd"><svg width="100%" height="100%" viewBox="0 0 120 120" version="1.1" xmlns="http://www.w3.org/2000/svg" xmlns:xlink="http://www.w3.org/1999/xlink" xml:space="preserve" xmlns:serif="http://www.serif.com/" style="fill-rule:evenodd;clip-rule:evenodd;stroke-linejoin:round;stroke-miterlimit:2;"><g><path d="M110.008,36.567l-1.11,0c-9.024,-18.78 -27.945,-30.803 -48.898,-30.803c-20.953,0 -39.898,12.024 -48.898,30.803l-1.11,0c-5.504,0 -9.992,4.465 -9.992,9.992l0,26.882c0,5.504 4.488,9.992 9.992,9.992l0.992,0c8.976,18.78 27.969,30.803 49.016,30.803c21.071,0 40.039,-12.024 49.016,-30.803l0.992,0c5.504,0 9.992,-4.488 9.992,-9.992l0,-26.882c0,-5.528 -4.488,-9.992 -9.992,-9.992Zm-8.598,0l-19.937,0c-1.89,-9.378 -4.795,-16.984 -8.409,-22.299c11.906,3.378 22.134,11.339 28.346,22.299Zm-41.409,-24.142c5.74,0 11.551,9.756 14.669,24.142l-29.339,0c3.118,-14.386 8.929,-24.142 14.669,-24.142Zm-13.063,1.843c-3.614,5.291 -6.543,12.921 -8.433,22.299l-19.913,0c6.213,-10.961 16.441,-18.921 28.346,-22.299Zm-28.465,69.165l20.055,0c1.89,9.402 4.819,17.008 8.433,22.323c-12,-3.378 -22.299,-11.339 -28.488,-22.323Zm41.528,24.142c-5.74,0 -11.551,-9.756 -14.669,-24.142l29.339,0c-3.118,14.386 -8.929,24.142 -14.669,24.142Zm13.039,-1.819c3.638,-5.315 6.543,-12.921 8.433,-22.323l20.055,0c-6.189,10.984 -16.488,18.945 -28.488,22.323Zm40.299,-32.315c0,1.843 -1.488,3.331 -3.331,3.331l-100.016,0c-1.843,0 -3.331,-1.488 -3.331,-3.331l0,-26.882c0,-1.843 1.488,-3.331 3.331,-3.331l99.992,0c1.843,0 3.331,1.488 3.331,3.331l0,26.882l0.024,0Z" style="fill-rule:nonzero;"/><path d="M34.488,62.764l-8.717,-11.906l-3.709,0l0,18.496l3.969,0l0,-11.598l8.457,11.598l3.945,0l0,-18.496l-3.945,0l0,11.906Z" style="fill-rule:nonzero;"/><path d="M46.748,61.866l7.961,0l0,-3.52l-7.961,0l0,-3.803l8.835,0l0,-3.685l-12.78,0l0,18.496l13.063,0l0,-3.661l-9.118,0l0,-3.827Z" style="fill-rule:nonzero;"/><path d="M75.331,61.488l-3.118,-10.63l-4.157,0l-3.142,10.63l-3.496,-10.63l-4.276,0l6.189,18.496l2.929,0l3.85,-12.85l3.898,12.85l2.929,0l6.189,-18.496l-4.276,0l-3.52,10.63Z" style="fill-rule:nonzero;"/><path d="M92.598,58.252c-1.937,-0.449 -3.898,-0.898 -3.921,-2.409c0.118,-1.276 0.921,-1.772 2.126,-1.795c1.63,0 3.236,0.614 4.772,1.819l2.008,-3.024c-1.89,-1.465 -4.016,-2.457 -6.638,-2.433c-2.953,-0.142 -6.378,1.795 -6.331,5.48c-0.236,3.638 2.457,5.055 5.953,5.858c2.173,0.472 3.425,1.205 3.283,2.315c0.024,1.228 -1.087,1.819 -2.339,1.819c-1.63,0 -3.378,-0.874 -5.291,-2.622l-2.362,3.024c2.244,2.173 4.772,3.26 7.583,3.26c3.567,0.165 6.52,-2.079 6.496,-5.575c0.047,-3.189 -1.961,-4.913 -5.339,-5.717Z" style="fill-rule:nonzero;"/></g></svg>