<?xml version="1.0" encoding="UTF-8" standalone="no"?><!DOCTYPE svg PUBLIC "-//W3C//DTD SVG 1.1//EN" "http://www.w3.org/Graphics/SVG/1.1/DTD/svg11.dtd"><svg width="100%" height="100%" viewBox="0 0 120 120" version="1.1" xmlns="http://www.w3.org/2000/svg" xmlns:xlink="http://www.w3.org/1999/xlink" xml:space="preserve" xmlns:serif="http://www.serif.com/" style="fill-rule:evenodd;clip-rule:evenodd;stroke-linejoin:round;stroke-miterlimit:2;"><g id="SVGRepo_iconCarrier"><path d="M119.763,33.186l-1.471,-0.735l-18.071,-12.778l-1.197,-0.791l-10.678,3.183c-3.574,-11.256 -13.912,-19.674 -25.716,-20.698c-8.463,-0.742 -16.548,2.004 -22.771,7.71c-6.137,5.628 -9.657,13.628 -9.657,21.95c0,2.685 0.375,5.355 1.11,7.969l-6.727,1.998l-19.836,-11.322l-1.827,-0.795l-2.733,1.81l0,72.471l0.007,1.775l22.321,12.729l1.195,0.791l74.271,-22.063l18.487,13.074l3.299,-1.708l0,-72.684l-0.006,-1.887Zm-75.804,-19.638c4.955,-4.542 11.402,-6.721 18.146,-6.137c9.833,0.855 18.401,8.153 20.838,17.752c0.198,0.778 0.296,1.554 0.415,2.33c0.091,0.59 0.182,1.181 0.228,1.769c0.042,0.546 0.039,1.089 0.042,1.633c0.004,0.563 0.022,1.126 -0.015,1.686c-0.044,0.649 -0.15,1.294 -0.249,1.94c-0.068,0.447 -0.105,0.897 -0.199,1.341c-0.235,1.097 -0.538,2.19 -0.935,3.274l-18.699,32.479l-0.737,1.28c-0.846,1.469 -2.251,1.629 -2.817,1.629c-0.564,0 -1.97,-0.16 -2.816,-1.629l-19.188,-33.323l-0.301,-0.594c-0.928,-2.593 -1.404,-5.265 -1.404,-7.949c0,-6.626 2.803,-12.997 7.69,-17.48Zm69.742,86.527l-12.135,-8.58l0,-27.948c0,-1.675 -1.358,-3.034 -3.034,-3.034c-1.675,0 -3.034,1.358 -3.034,3.034l0,27.253l-70.914,21.066l-18.329,-10.452l0,-63.896l16.158,9.215l0,26.065c0,1.675 1.358,3.034 3.034,3.034c1.675,0 3.034,-1.358 3.034,-3.034l0,-26.638l5.365,-1.6l17.849,31.001l0.207,0.36l0.002,0.003l5.258,9.133c0.579,1.001 1.658,1.625 2.816,1.625c0,0 1.663,0.237 2.834,-1.66c1.378,-2.233 5.236,-9.095 5.236,-9.095c0.001,-0.002 0.003,-0.004 0.004,-0.006l19.562,-33.979l0.21,-0.444c0.003,-0.008 0.005,-0.016 0.008,-0.024c0.353,-0.939 0.639,-1.892 0.894,-2.85c0.079,-0.296 0.154,-0.594 0.224,-0.892c0.197,-0.843 0.364,-1.691 0.486,-2.544c0.043,-0.301 0.074,-0.604 0.108,-0.906c0.086,-0.775 0.141,-1.552 0.166,-2.331c0.009,-0.316 0.018,-0.631 0.017,-0.947c-0,-0.993 -0.038,-1.986 -0.139,-2.978c-0,-0.004 -0,-0.007 -0.001,-0.011l8.393,-2.495l15.718,11.116l0,63.44l0,0Z" style="fill-rule:nonzero;"/><path d="M46.453,31.969c0,7.42 6.106,13.525 13.525,13.525c7.42,0 13.525,-6.106 13.525,-13.525c0,-7.42 -6.106,-13.525 -13.525,-13.525c-7.42,0 -13.525,6.106 -13.525,13.525Z" style="fill:none;fill-rule:nonzero;stroke:#000;stroke-width:5.76px;"/></g></svg>