<?xml version="1.0" encoding="UTF-8" standalone="no"?><!DOCTYPE svg PUBLIC "-//W3C//DTD SVG 1.1//EN" "http://www.w3.org/Graphics/SVG/1.1/DTD/svg11.dtd"><svg width="100%" height="100%" viewBox="0 0 120 120" version="1.1" xmlns="http://www.w3.org/2000/svg" xmlns:xlink="http://www.w3.org/1999/xlink" xml:space="preserve" xmlns:serif="http://www.serif.com/" style="fill-rule:evenodd;clip-rule:evenodd;stroke-linecap:round;stroke-linejoin:round;stroke-miterlimit:1.5;"><path d="M71.356,50.47c0,0 15.159,-12.499 8.254,-29.036c-3.912,-9.369 -18.281,-15.638 -19.603,-16.241c-1.322,-0.604 -2.843,-0.995 -1.926,1.207c2.264,5.433 1.207,11.169 -13.886,24.677c-14.421,12.907 -15.852,14.616 -24.25,28.679c-7.829,13.112 -4.814,34.12 7.735,43.109c7.025,5.032 12.177,7.427 18.772,9.527c4.031,1.284 2.871,-0.586 2.55,-0.883c-0.321,-0.297 -7.347,-4.003 -9.968,-10.259c-1.416,-3.381 -6.283,-19.343 12.888,-35.894c4.409,-3.807 6.394,-4.882 8.454,-6.105c3.516,-2.087 7.803,-6.127 10.94,-8.75c0.36,-0.301 -0.278,0.659 4.706,0.228c1.012,-0.088 2.706,-0.721 3.417,-1.359c2.201,-1.975 2.076,-3.903 2.373,-5.466c0.166,-0.875 0.288,-1.042 1.342,-0.434c1.053,0.608 13.839,4.553 19.761,21.757c2.043,5.934 4.617,24.046 -13.312,40.454c-11.536,10.557 -22.858,11.095 -29.598,7.829c-6.814,-3.302 -6.248,-15.187 3.94,-24.809c10.188,-9.622 9.112,-8.146 12.467,-11.335c3.156,-3 15.8,-13.346 5.759,-34.153c-0.011,-0.022 -0.279,0.257 -0.395,0.894c-0.207,1.131 -0.286,3.066 -1.718,4.688c-1.823,2.065 -6.056,2.417 -8.673,1.705c-0.064,-0.017 -4.305,4.016 -10.886,8.676c-0.104,0.073 12.764,13.208 15.913,18.19" style="fill:none;stroke:#000;stroke-width:3px;"/></svg>