<?xml version="1.0" encoding="UTF-8" standalone="no"?><!DOCTYPE svg PUBLIC "-//W3C//DTD SVG 1.1//EN" "http://www.w3.org/Graphics/SVG/1.1/DTD/svg11.dtd"><svg width="100%" height="100%" viewBox="0 0 120 120" version="1.1" xmlns="http://www.w3.org/2000/svg" xmlns:xlink="http://www.w3.org/1999/xlink" xml:space="preserve" xmlns:serif="http://www.serif.com/" style="fill-rule:evenodd;clip-rule:evenodd;stroke-linecap:round;stroke-linejoin:round;stroke-miterlimit:1.5;"><path d="M71.693,50.422c0,0 15.609,-12.87 8.499,-29.898c-4.028,-9.647 -18.824,-16.102 -20.185,-16.723c-1.361,-0.622 -2.928,-1.025 -1.983,1.243c2.331,5.595 1.243,11.5 -14.298,25.409c-14.849,13.29 -16.323,15.05 -24.97,29.53c-8.062,13.501 -4.957,35.132 7.965,44.388c7.234,5.182 12.538,7.647 19.329,9.81c4.151,1.322 2.957,-0.603 2.626,-0.909c-0.331,-0.306 -7.565,-4.122 -10.264,-10.563c-1.458,-3.481 -6.469,-19.917 13.271,-36.959c4.54,-3.92 6.583,-5.027 8.705,-6.286c3.621,-2.149 8.034,-6.309 11.264,-9.01c0.371,-0.31 -0.286,0.679 4.846,0.234c1.042,-0.09 2.786,-0.742 3.519,-1.399c2.266,-2.033 2.138,-4.019 2.443,-5.628c0.171,-0.901 0.297,-1.073 1.382,-0.447c1.085,0.626 14.25,4.688 20.347,22.403c2.103,6.11 4.754,24.76 -13.707,41.655c-11.878,10.87 -23.537,11.424 -30.476,8.062c-7.016,-3.4 -6.434,-15.638 4.057,-25.545c10.49,-9.907 9.383,-8.388 12.837,-11.671c3.25,-3.089 16.269,-13.742 5.93,-35.167c-0.011,-0.023 -0.287,0.264 -0.407,0.921c-0.213,1.164 -0.294,3.157 -1.768,4.827c-1.878,2.127 -6.236,2.489 -8.931,1.755c-0.066,-0.018 -4.433,4.135 -11.209,8.934c-0.107,0.076 13.143,13.6 16.385,18.73" style="fill:none;stroke:#000;stroke-width:4px;"/></svg>