<?xml version="1.0" encoding="UTF-8" standalone="no"?><!DOCTYPE svg PUBLIC "-//W3C//DTD SVG 1.1//EN" "http://www.w3.org/Graphics/SVG/1.1/DTD/svg11.dtd"><svg width="100%" height="100%" viewBox="0 0 120 120" version="1.1" xmlns="http://www.w3.org/2000/svg" xmlns:xlink="http://www.w3.org/1999/xlink" xml:space="preserve" xmlns:serif="http://www.serif.com/" style="fill-rule:evenodd;clip-rule:evenodd;stroke-linecap:round;stroke-linejoin:round;stroke-miterlimit:1.5;"><g><path d="M26.769,2.658c0,0 -13.856,-1.546 -12.924,14.323c-0.283,0.484 -0.412,89.31 -0.028,89.885c0.384,0.576 0.959,8.575 9.978,10.332c12.857,0.414 70.808,0 70.808,0l0.384,-44.489l6.716,-0.192c0,0 4.222,-0.768 4.222,-4.222c0,-3.454 0.384,-16.887 0.384,-16.887c0,0 -0.393,-1.781 -1.636,-2.476c-1.343,-0.192 1.019,-0.121 1.522,-2.787c0.503,-2.666 -0.05,-16.6 -0.05,-16.6c0,0 0.05,-1.408 -1.308,-2.867c-0.453,-1.056 1.408,-0.503 1.358,-3.219c-0,-3.219 -0.05,-16.198 -0.05,-16.198c0,0 -0.553,-4.588 -6.036,-4.604c-5.483,-0.016 -73.34,0 -73.34,0Z" style="fill:none;stroke:#000;stroke-width:5px;"/><path d="M94.795,95.044l-70.108,-0.136c-0,0 -7.711,-0.282 -11.109,9.658c0.344,4.869 2.532,11.167 10.162,12.633c10.302,0.074 70.97,0 70.97,0l0.085,-22.155Z" style="fill:none;stroke:#000;stroke-width:5px;"/><path d="M23.09,106.069l71.663,0l0.042,-103.411l6.726,-0c0,0 4.299,0.407 4.645,4.919c0.144,2.777 -0.097,16.333 -0.097,16.333c0,0 0.241,1.61 -1.408,2.495l-9.865,0.483l0,22.174l9.543,-0.241c0,0 2.287,0.362 2.069,4.185c-0.017,2.052 -0.459,15.131 -0.459,15.131c0,0 0.08,4.145 -4.105,4.386c-5.393,0.08 -7.048,0.201 -7.048,0.201l-0.042,33.344l-71.663,0Z" style="fill:none;stroke:#000;stroke-width:5px;"/></g><clipPath id="_clip1"><rect x="13.578" y="7.726" width="81.217" height="81.217"/></clipPath><g clip-path="url(#_clip1)"><path d="M45.557,15.34l17.259,0c1.777,0 3.046,2.03 2.284,3.553l-5.838,11.675l-10.152,0l-5.838,-11.675c-0.761,-1.523 0.508,-3.553 2.284,-3.553Z" style="fill:none;fill-rule:nonzero;stroke:#000;stroke-width:5.08px;stroke-miterlimit:10;"/><path d="M49.111,30.568l10.152,0l7.107,35.533c0.254,1.777 -0.254,3.299 -1.269,4.568l-8.883,8.883c-1.015,1.015 -2.538,1.015 -3.553,0l-8.883,-8.883c-1.269,-1.269 -1.777,-3.046 -1.269,-4.568l6.599,-35.533Z" style="fill:none;fill-rule:nonzero;stroke:#000;stroke-width:5.08px;stroke-miterlimit:10;"/><path d="M54.187,50.873l9.137,0" style="fill:none;fill-rule:nonzero;stroke:#000;stroke-width:5.08px;stroke-miterlimit:10;"/><rect x="-717.379" y="-1636.927" width="1360.392" height="1725.871" style="fill:none;"/></g></svg>