<?xml version="1.0" encoding="UTF-8" standalone="no"?><!DOCTYPE svg PUBLIC "-//W3C//DTD SVG 1.1//EN" "http://www.w3.org/Graphics/SVG/1.1/DTD/svg11.dtd"><svg width="100%" height="100%" viewBox="0 0 120 120" version="1.1" xmlns="http://www.w3.org/2000/svg" xmlns:xlink="http://www.w3.org/1999/xlink" xml:space="preserve" xmlns:serif="http://www.serif.com/" style="fill-rule:evenodd;clip-rule:evenodd;stroke-linecap:round;stroke-linejoin:round;stroke-miterlimit:1.5;"><g><path d="M26.769,2.658c0,0 -13.856,-1.546 -12.924,14.323c-0.283,0.484 -0.412,89.31 -0.028,89.885c0.384,0.576 0.959,8.575 9.978,10.332c12.857,0.414 70.808,0 70.808,0l0.384,-44.489l6.716,-0.192c0,0 4.222,-0.768 4.222,-4.222c0,-3.454 0.384,-16.887 0.384,-16.887c0,0 -0.393,-1.781 -1.636,-2.476c-1.343,-0.192 1.019,-0.121 1.522,-2.787c0.503,-2.666 -0.05,-16.6 -0.05,-16.6c0,0 0.05,-1.408 -1.308,-2.867c-0.453,-1.056 1.408,-0.503 1.358,-3.219c-0,-3.219 -0.05,-16.198 -0.05,-16.198c0,0 -0.553,-4.588 -6.036,-4.604c-5.483,-0.016 -73.34,0 -73.34,0Z" style="fill:none;stroke:#000;stroke-width:5px;"/><path d="M94.795,95.044l-70.108,-0.136c-0,0 -7.711,-0.282 -11.109,9.658c0.344,4.869 2.532,11.167 10.162,12.633c10.302,0.074 70.97,0 70.97,0l0.085,-22.155Z" style="fill:none;stroke:#000;stroke-width:5px;"/><path d="M23.09,106.069l71.663,0l0.042,-103.411l6.726,-0c0,0 4.299,0.407 4.645,4.919c0.144,2.777 -0.097,16.333 -0.097,16.333c0,0 0.241,1.61 -1.408,2.495l-9.865,0.483l0,22.174l9.543,-0.241c0,0 2.287,0.362 2.069,4.185c-0.017,2.052 -0.459,15.131 -0.459,15.131c0,0 0.08,4.145 -4.105,4.386c-5.393,0.08 -7.048,0.201 -7.048,0.201l-0.042,33.344l-71.663,0Z" style="fill:none;stroke:#000;stroke-width:5px;"/></g><path d="M43.786,22.995l14.733,-14.733l6.563,0l-19.109,19.109l-2.188,-4.376Zm18.342,9.576l-20.419,20.419l-0.213,0.957l0,5.82l21.825,-21.825l-1.193,-5.371Zm-7.198,-24.309l-13.434,0l0,10.152l1.094,2.188l12.34,-12.34Zm5.076,22.842l-13.434,0l-3.838,17.271l17.271,-17.271Zm-5.82,58.375l12.69,-7.614l0,-13.434l-17.914,17.914l5.223,3.134Zm-7.467,-4.48l20.157,-20.157l0,-6.563l-24.259,24.259l4.101,2.462Zm1.647,-56.433l13.434,0l5.076,-10.152l0,-8.358l-18.51,18.51Zm-6.87,34.789l0,16.716l25.38,-25.38l0,-0.744l-2.904,-13.068l-22.477,22.477Z" style="fill-rule:nonzero;"/></svg>