<?xml version="1.0" encoding="UTF-8"?> 
 <!DOCTYPE svg PUBLIC "-//W3C//DTD SVG 1.1//EN" "http://www.w3.org/Graphics/SVG/1.1/DTD/svg11.dtd"> 
 <!-- Creator: CorelDRAW --> 
 <svg xmlns="http://www.w3.org/2000/svg" xml:space="preserve" width="132.292mm" height="132.292mm" version="1.1" style="shape-rendering:geometricPrecision; text-rendering:geometricPrecision; image-rendering:optimizeQuality; fill-rule:evenodd; clip-rule:evenodd" 
 viewBox="0 0 13229.16 13229.16" 
  xmlns:xlink="http://www.w3.org/1999/xlink" 
  xmlns:xodm="http://www.corel.com/coreldraw/odm/2003"> 
  <defs> 
   <style type="text/css"> 
    <![CDATA[ 
     .fil0 {fill:#001E48} 
    ]]> 
   </style> 
  </defs> 
  <g id="Camada_x0020_1"> 
   <metadata id="CorelCorpID_0Corel-Layer"/> 
   <path class="fil0" d="M5306.57 13102.33c-227.83,-331.86 -729.42,-475.14 -1097.13,-1044.69 -319.13,-494.3 -422.07,-1179.36 -332.95,-1753.97 158.85,-1024.32 884.6,-1979.87 1571.95,-2724.28 178.41,-193.21 908.54,-1068.13 1153.37,-883.63 395.92,298.36 754.08,692.96 1084.7,1064.11 674.27,756.92 1418.67,1761.54 1498.87,2803.07 53.52,695.16 -105.47,1076.99 -493.23,1627.22 -89.14,126.5 -1182.56,1029.74 -420.94,814.48 788.04,-222.74 2102.73,-1077.12 2657.71,-1692.92 1716.02,-1904.08 1108.26,-4295.91 -709.2,-5851.53 -186.65,-159.76 -408.39,-323.42 -619.07,-449.51 -575.21,-344.26 -402.28,-61.1 -515.99,245.14 -223.25,601.24 -1016.55,601.81 -1410.09,207.37 -463.16,-464.24 -158.83,-1145.08 -45.94,-1688.68 140.96,-678.81 224.92,-1196.5 89.04,-1890.05 -102.88,-525.09 -418.16,-1005.74 -784.03,-1389.03 -730.51,-765.31 -510.71,8.57 -520.09,539.9 -14.51,821.73 -1292.92,1876.91 -1880.5,2412.62 -1534.21,1398.78 -3193.49,3110.91 -3285.34,5306.9 -49.3,1178.66 337.96,2262.83 1224.95,3057.89 671.3,601.72 1924.58,1338.94 2833.91,1289.59z"/> 
  </g> 
 </svg>