<svg xmlns="http://www.w3.org/2000/svg" version="1.0" viewBox="0 0 1024 1024"><path d="M332 322c-1.1 1.1-2.2 3-2.6 4.4-.3 1.4.1 3.7 1 5.5.9 1.7 2.6 3.3 3.9 3.5 1.2.3 4 .8 6.2 1.1 2.2.4 5.1 1.3 6.3 2.2 1.3.8 3 3 3.8 4.8 1.1 2.8 1.4 12.9 1.4 55.8 0 52.4 0 52.4 2.3 54.5 1.5 1.4 3.6 2.2 5.8 2.2 2.4 0 4.2-.7 5.7-2.3 2-2.1 2.1-3.3 2.4-31.9.3-28.3.4-29.8 2.4-32.5 1.1-1.5 3.9-3.4 6.1-4.2 3.6-1.3 4.3-1.2 7.9.5 2.4 1.2 4.6 3.2 5.6 5.4 1.6 3.1 1.8 7.1 1.8 37.6 0 34.1 0 34.1 2.3 36.2 1.5 1.4 3.6 2.2 5.8 2.2 2.4 0 4.2-.7 5.6-2.3 1.5-1.6 2.2-4.1 2.6-9.7.4-5 1.2-8.3 2.5-10 1-1.4 3.7-3.1 5.9-3.9 3.6-1.3 4.3-1.2 7.9.5 2.4 1.2 4.6 3.2 5.6 5.4 1.6 3.1 1.8 6.7 1.8 29.3 0 25.8 0 25.8 2.5 28.2 1.4 1.5 3.6 2.5 5.3 2.5 1.6 0 4.1-.9 5.6-2.1 2.6-2 2.6-2 2.6-30.3 0-23.2-.3-29.1-1.6-32.9-.9-2.6-3.4-6.6-5.7-9-2.3-2.3-6-5.1-8.2-6.2-3-1.5-6-2-12-2-4.4 0-9 .4-10.2.8-2.3.8-2.3.8-2.3-17.1 0-13.4-.4-19-1.5-22.3-.9-2.5-2.9-6.2-4.6-8.2s-5.2-4.9-7.7-6.5c-4.1-2.4-5.7-2.7-13.2-2.7-4.7 0-9.5.4-10.7.8-2.3.8-2.3.8-2.3-13.1 0-10.3-.4-15.1-1.7-18.7-1-3.1-3.4-6.7-6.3-9.5-2.8-2.9-6.4-5.3-9.5-6.3-2.7-.9-7.5-1.7-10.7-1.7-4.4 0-6.3.5-7.8 2m343.4-.9c-1.8.5-5.4 2.4-8 4.2-3.6 2.5-5.8 5.1-8.1 9.6-3.3 6.2-3.3 6.4-3.3 20.8 0 13.4-.1 14.5-1.7 13.8-1-.5-4.9-1-8.6-1.3-4.9-.3-8 0-11.2 1.2-2.4 1-6.1 3-8.3 4.6-2.6 1.8-5.1 5-7.1 9.1-3.1 6.2-3.1 6.2-3.1 24.7 0 17.1-.1 18.4-1.7 17.7-1-.4-5-1-8.9-1.2-6.2-.5-7.9-.2-12.5 1.9-3 1.4-6.9 4.1-8.8 5.9-1.9 1.9-4.5 5.6-5.7 8.4-2.3 4.9-2.4 5.7-2.4 33.7 0 28.7 0 28.7 2.6 30.7 1.5 1.2 3.9 2.1 5.4 2.1s3.8-.9 5.1-1.9c2.4-1.9 2.4-2 2.9-29.4.5-26 .6-27.7 2.6-30.4 1.1-1.5 3.7-3.4 5.7-4 2.9-1 4.5-1 7.4 0 2 .6 4.5 2.4 5.6 3.9 1.4 1.8 2.1 4.8 2.4 10 .4 5.5 1 7.9 2.6 9.5 1.4 1.6 3.2 2.3 5.7 2.3s4.3-.7 5.8-2.3c2-2.2 2.1-3.1 2.4-37.4.3-33.9.4-35.3 2.4-38 1.1-1.5 3.7-3.4 5.7-4 2.9-1 4.5-1 7.4 0 2 .6 4.6 2.5 5.7 4 2 2.7 2.1 4.2 2.4 32.6.3 29.9.3 29.9 2.7 32.1 1.5 1.4 3.7 2.3 5.5 2.3s4-.9 5.5-2.3c2.5-2.3 2.5-2.3 2.5-53.9 0-31.3.4-53 1-55.2.6-2 1.9-4.4 3-5.4 1.2-1.1 4.7-2.2 8.2-2.7 3.4-.4 7-1.5 7.9-2.4 1-.9 2.1-2.9 2.4-4.4.4-1.6.1-3.9-.6-5.2s-1.9-2.8-2.8-3.5-4.1-1.2-7.1-1.2c-3 .1-6.9.5-8.6 1"/><path d="M289.3 337.7c-2.4.8-6.2 3.3-8.6 5.6-2.3 2.3-5.1 6-6.2 8.2-1.9 3.8-2 6.6-2.3 63-.2 40 .1 61.5.8 66.9.6 4.4 2.2 11.6 3.5 16.1s6.5 17.3 11.6 28.6c5.1 11.2 11.4 24.1 14.1 28.7 2.7 4.7 7.6 12.5 11.1 17.6 3.4 5 9.1 12.7 12.6 17.1 3.7 4.7 14.3 15.1 25.4 25 12.8 11.3 20 18.5 21.7 21.5 2.5 4.5 2.5 4.6 2.8 34 .3 28.4.4 29.6 2.4 31.7 1.5 1.6 3.3 2.3 5.8 2.3s4.3-.7 5.8-2.3c2.2-2.3 2.2-2.9 2.2-32.5 0-27.1-.2-30.8-1.9-35.6-1-3-3.3-7.5-5-9.9-1.7-2.5-9.7-10.3-17.8-17.5-8.2-7.1-17.7-16-21.3-19.8s-10.5-12.7-15.5-19.7c-4.9-6.9-11.6-17.5-14.9-23.4-3.2-6-9-17.5-12.8-25.7s-7.9-18.1-9.2-22-2.9-10.3-3.7-14.1c-1.1-5.5-1.4-19.3-1.4-64 0-53.6.1-57.3 1.8-59.9 1-1.5 3.5-3.5 5.5-4.3 3.2-1.3 4.2-1.4 7.6-.2 2.2.8 4.9 2.7 6 4.2 2.1 2.8 2.1 4.1 2.6 54.5.5 51.7.5 51.7 3.7 58.2 1.8 3.6 9.3 14.4 16.7 24s14.5 18.8 15.9 20.5c1.3 1.6 11.5 14.9 22.7 29.5s21.5 27.7 22.8 29.2c1.8 1.9 3.6 2.8 5.8 2.8 1.7 0 4.3-.9 5.8-2.1 2-1.5 2.6-2.9 2.6-5.7 0-3.3-2.8-7.3-24.5-35.6-22.5-29.2-24.5-32.1-24.5-35.8 0-2.9.6-4.5 2.6-6.3s3.8-2.5 6.8-2.5c4.1 0 4.4.3 48.2 44.2 36.5 36.7 44.7 45.4 47.7 50.8 1.9 3.6 4.3 9 5.3 12 1.6 4.9 1.8 11 2.2 55 .3 48.7.4 49.5 2.4 51.7 1.5 1.6 3.3 2.3 5.8 2.3s4.3-.7 5.8-2.3c2.2-2.3 2.2-2.4 2.2-51.9 0-45.9-.1-50-2-57.2-1.1-4.2-3.8-11.4-6.1-15.9-4-7.8-6.4-10.4-50.3-54.6-32-32.1-47.3-46.9-50.1-48.1-2.2-1-6.1-2.1-8.7-2.5-3.1-.5-6.4-.2-10.3 1-4 1.1-7.1 2.9-10.5 6.1-4.8 4.5-4.8 4.5-12.3-5.5-5.7-7.5-7.8-11.1-8.6-15.1-.7-3.3-1.1-21.8-1.1-52.9 0-47.8 0-47.8-3.1-54.1-2.2-4.4-4.5-7.2-7.6-9.4-2.4-1.7-5.9-3.6-7.6-4.3-1.8-.6-6.1-1.1-9.7-1.1s-8.4.6-10.7 1.5m421.8 1.4c-3.3 1.7-7.2 4.5-8.6 6.3-1.3 1.7-3.3 5.2-4.4 7.6-2 4.3-2.1 6.4-2.1 52.2 0 30.9-.4 49.5-1.1 52.8-.8 4-2.9 7.6-8.6 15.2-7.6 10-7.6 10-11.7 6-2.2-2.2-5.7-4.8-7.6-5.8-2.5-1.3-5.6-1.9-11-1.9-5.8 0-8.4.5-11.5 2.2-2.3 1.2-23.7 21.9-50.1 48.5-43.9 44.1-46.3 46.7-50.3 54.5-2.3 4.5-5 11.7-6.1 15.9-1.9 7.2-2 11.3-2 57.4 0 49.7 0 49.7 2.3 51.8 1.5 1.4 3.6 2.2 5.8 2.2 2.4 0 4.2-.7 5.7-2.3 2-2.2 2.1-3 2.4-51.7.4-44 .6-50.1 2.2-55 1-3 3.4-8.4 5.3-12 3-5.4 11.2-14.1 47.7-50.8 43.8-43.9 44.1-44.2 48.2-44.2 3 0 4.8.7 6.8 2.5s2.6 3.4 2.6 6.3c0 3.6-2 6.6-24.5 35.8-21.5 28-24.5 32.3-24.5 35.5 0 2.4.7 4.2 2.3 5.7 1.3 1.2 3.6 2.2 5.1 2.2s3.6-.4 4.6-1c1-.5 12-14.1 24.4-30.2s23.3-30.2 24.2-31.3c.8-1.1 7.6-9.9 14.9-19.5 7.4-9.6 15-20.4 16.7-24 3.3-6.5 3.3-6.5 3.8-58 .5-47.8.6-51.8 2.3-54.4 1-1.5 3.5-3.5 5.5-4.3 3.2-1.3 4.2-1.4 7.6-.2 2.2.8 4.9 2.7 6 4.2 2.1 2.8 2.1 3.6 2.1 60 0 51.4-.2 58-1.8 65.6-1 4.6-2.5 10.4-3.4 13-.8 2.5-4.2 10.9-7.5 18.6s-8.7 19.2-12 25.5-8.4 15.1-11.2 19.5c-2.9 4.4-8 11.4-11.3 15.5-3.4 4.1-9.9 11.1-14.5 15.5-4.5 4.4-13.8 12.9-20.6 18.8-6.7 6-13.4 12.5-14.7 14.6-1.4 2-3.4 6.3-4.5 9.4-1.8 5.2-2 8.3-2 36 0 30.4 0 30.4 2.3 32.5 1.5 1.4 3.6 2.2 5.8 2.2 2.4 0 4.2-.7 5.7-2.3 2-2.1 2.1-3.3 2.4-31.7.3-28 .4-29.7 2.5-33.5 1.2-2.2 4.5-6.3 7.5-9.1 2.9-2.8 10.8-9.9 17.6-15.8 6.7-6 15.4-14.4 19.2-18.7s9.4-11.1 12.3-15.1c3-4 8.4-12.2 12.1-18.2s8.3-13.9 10.1-17.5 4.7-10.1 6.4-14.4c1.7-4.2 4.4-11 6-15 1.6-3.9 3.9-10.1 5-13.7 1.2-3.6 2.8-10.6 3.6-15.5 1.2-7.2 1.5-20.9 1.5-67.6 0-58.6 0-58.6-3.1-64.8-1.7-3.3-4.5-7.2-6.3-8.6-1.7-1.3-5.2-3.3-7.6-4.4-3-1.4-6.6-2.1-11.1-2.1-5.4 0-7.7.6-12.8 3.1"/></svg>