<!DOCTYPE svg PUBLIC "-//W3C//DTD SVG 1.1//EN" "http://www.w3.org/Graphics/SVG/1.1/DTD/svg11.dtd">
<!-- Uploaded to: SVG Repo, www.svgrepo.com, Transformed by: SVG Repo Mixer Tools -->
<svg width="800px" height="800px" viewBox="0 0 24 24" id="ticket" xmlns="http://www.w3.org/2000/svg" class="icon multi-color" fill="#000000">
<g id="SVGRepo_bgCarrier" stroke-width="0"/>
<g id="SVGRepo_tracerCarrier" stroke-linecap="round" stroke-linejoin="round"/>
<g id="SVGRepo_iconCarrier">
<title style="stroke-width: 2;">ticket</title>
<path id="tertiary-fill" d="M18,12a3,3,0,0,0,3,3v4H15V5h6V9A3,3,0,0,0,18,12Z" style="fill: #000000; stroke-width: 2;"/>
<path id="secondary-stroke" d="M10,5V8m0,3v2m0,6V16" style="fill: none; stroke: #000000; stroke-linecap: round; stroke-linejoin: round; stroke-width: 2;"/>
<path id="primary-stroke" d="M18,12a3,3,0,0,0,3,3v3a1,1,0,0,1-1,1H4a1,1,0,0,1-1-1V15A3,3,0,0,0,3,9V6A1,1,0,0,1,4,5H20a1,1,0,0,1,1,1V9A3,3,0,0,0,18,12Z" style="fill: none; stroke: #000000; stroke-linecap: round; stroke-linejoin: round; stroke-width: 2;"/>
</g>
</svg>